<svg width="50" height="64" viewBox="0 0 50 64" fill="none" xmlns="http://www.w3.org/2000/svg">
<path fill-rule="evenodd" clip-rule="evenodd" d="M45.1966 52.3737C47.6287 52.3737 49.6002 50.3759 49.6002 47.9115V4.46227C49.6002 1.99787 47.6287 0 45.1966 0H16.2249C13.7929 0 11.8213 1.99787 11.8213 4.46227V8.36773H36.9389C39.3709 8.36773 41.3425 10.3655 41.3425 12.83V52.3737H45.1966Z" fill="#4D64AD"/>
<path fill-rule="evenodd" clip-rule="evenodd" d="M9.01543 44.5947C8.83556 44.7467 8.68621 44.9471 8.56726 45.1967C8.44792 45.447 8.38818 45.677 8.38818 45.8895C8.38818 46.1915 8.44792 46.4303 8.56726 46.6046C8.68621 46.7794 8.83556 46.9342 9.01543 47.0701V44.5947Z" fill="#4D64AD"/>
<mask id="mask0_71_642" style="mask-type:alpha" maskUnits="userSpaceOnUse" x="0" y="11" width="38" height="53">
<path fill-rule="evenodd" clip-rule="evenodd" d="M0 11.626H37.7789V63.9997H0V11.626Z" fill="white"/>
</mask>
<g mask="url(#mask0_71_642)">
<path fill-rule="evenodd" clip-rule="evenodd" d="M0 16.0882V59.5373C0 62.0018 1.97161 63.9997 4.40361 63.9997H33.3753C35.8075 63.9997 37.7789 62.0018 37.7789 59.5373V55.632V16.0882C37.7789 13.6237 35.8075 11.626 33.3753 11.626H8.25774H4.40361C1.97161 11.626 0 13.6237 0 16.0882ZM29.3018 56.6608H19.2399C18.2745 56.6608 17.4918 55.8676 17.4918 54.8894C17.4918 53.9112 18.2745 53.1181 19.2399 53.1181H29.3018C30.2673 53.1181 31.0499 53.9112 31.0499 54.8894C31.0499 55.8676 30.2673 56.6608 29.3018 56.6608ZM29.3018 51.1241H19.2399C18.2745 51.1241 17.4918 50.331 17.4918 49.3528C17.4918 48.3745 18.2745 47.5814 19.2399 47.5814H29.3018C30.2673 47.5814 31.0499 48.3745 31.0499 49.3528C31.0499 50.331 30.2673 51.1241 29.3018 51.1241ZM26.7648 26.1696C26.7648 25.8757 26.9998 25.6376 27.2898 25.6376H30.4399C30.7299 25.6376 30.965 25.8757 30.965 26.1696V34.8148C30.965 35.1085 30.7299 35.3468 30.4399 35.3468H27.2898C26.9998 35.3468 26.7648 35.1085 26.7648 34.8148V26.1696ZM20.0708 29.6941C20.0708 29.4002 20.3058 29.1621 20.5958 29.1621H23.746C24.0359 29.1621 24.271 29.4002 24.271 29.6941V34.8148C24.271 35.1085 24.0359 35.3468 23.746 35.3468H20.5958C20.3058 35.3468 20.0708 35.1085 20.0708 34.8148V29.6941ZM19.2399 42.0449H29.3018C30.2673 42.0449 31.0499 42.838 31.0499 43.8162C31.0499 44.7945 30.2673 45.5876 29.3018 45.5876H19.2399C18.2745 45.5876 17.4918 44.7945 17.4918 43.8162C17.4918 42.838 18.2745 42.0449 19.2399 42.0449ZM13.3111 21.182C13.3111 20.8881 13.5462 20.65 13.8362 20.65H16.9863C17.2763 20.65 17.5113 20.8881 17.5113 21.182V34.8148C17.5113 35.1085 17.2763 35.3468 16.9863 35.3468H13.8362C13.5462 35.3468 13.3111 35.1085 13.3111 34.8148V21.182ZM6.81404 26.1696C6.81404 25.8757 7.04904 25.6376 7.33905 25.6376H10.4892C10.7791 25.6376 11.0142 25.8757 11.0142 26.1696V34.8148C11.0142 35.1085 10.7791 35.3468 10.4892 35.3468H7.33905C7.04904 35.3468 6.81404 35.1085 6.81404 34.8148V26.1696ZM5.81061 51.7598C6.03429 51.5701 6.27258 51.476 6.5268 51.476C7.06444 51.476 7.40905 51.7572 7.55892 52.3168C7.78195 53.0889 8.26722 53.6264 9.01538 53.929V49.5454C8.69867 49.3914 8.40077 49.2213 8.12129 49.035C8.07064 49.0013 8.02156 48.967 7.97313 48.9328C7.65116 48.7048 7.37181 48.4437 7.1322 48.1484C6.89325 47.8538 6.70601 47.5202 6.57193 47.1497C6.43719 46.779 6.37153 46.358 6.37153 45.8892C6.37153 45.4196 6.44193 44.9958 6.58246 44.6172C6.72522 44.2385 6.91983 43.9056 7.16602 43.6177C7.41234 43.3298 7.69313 43.0877 8.00708 42.8906C8.32038 42.6934 8.65683 42.5509 9.01538 42.4588V42.2549C9.01538 42.2132 9.0167 42.1721 9.01802 42.1325C9.05183 41.4874 9.35657 41.1645 9.93474 41.1645C10.5394 41.1645 10.8594 41.4874 10.8938 42.1325C10.8958 42.1721 10.8971 42.2132 10.8971 42.2549V42.4588C11.2563 42.536 11.6041 42.6632 11.9407 42.8454C12.2765 43.0264 12.5706 43.251 12.8261 43.5161C13.0803 43.7797 13.2815 44.083 13.4302 44.4249C13.5795 44.7645 13.6552 45.1325 13.6552 45.5252C13.6552 45.8434 13.5536 46.1084 13.3518 46.3196C13.1507 46.5328 12.9006 46.639 12.6011 46.639C12.2886 46.639 12.07 46.559 11.9512 46.4004C11.8317 46.2402 11.7388 46.0558 11.6706 45.8434C11.6041 45.6314 11.5252 45.4116 11.4354 45.1849C11.3453 44.9576 11.1659 44.784 10.8971 44.6616V47.9332C11.3612 48.1452 11.8027 48.3832 12.2202 48.6489C12.639 48.9133 13.0014 49.2085 13.3068 49.534C13.5643 49.8072 13.776 50.1098 13.9439 50.4414C13.9757 50.5046 14.007 50.57 14.0356 50.6352C14.2155 51.0441 14.3051 51.4989 14.3051 51.9978C14.3051 52.6194 14.2115 53.1717 14.0243 53.656C13.837 54.1422 13.5874 54.5546 13.2741 54.8936C12.9595 55.2346 12.5971 55.511 12.1869 55.7229C11.7753 55.9356 11.3453 56.0794 10.8971 56.1548V56.5866C10.8971 57.2229 10.5838 57.541 9.95658 57.541C9.32855 57.541 9.01538 57.2229 9.01538 56.5866V56.1325C8.50683 56.0262 8.03616 55.8561 7.60273 55.6214C7.16931 55.3866 6.79562 55.1101 6.48232 54.7926C6.16824 54.4738 5.92271 54.1268 5.74284 53.7474C5.56429 53.3686 5.47402 52.9826 5.47402 52.5892C5.47402 52.2253 5.58626 51.9494 5.81061 51.7598Z" fill="#4D64AD"/>
</g>
<path fill-rule="evenodd" clip-rule="evenodd" d="M11.8618 53.2822C12.1153 52.9876 12.2428 52.5746 12.2428 52.0439C12.2428 51.6955 12.1153 51.3934 11.8618 51.1351C11.6076 50.8788 11.2862 50.6435 10.8979 50.4316V53.9522C11.2862 53.8008 11.6076 53.5775 11.8618 53.2822Z" fill="#4D64AD"/>
</svg>
