<svg width="18" height="24" viewBox="0 0 18 24" fill="none" xmlns="http://www.w3.org/2000/svg">
<path fill-rule="evenodd" clip-rule="evenodd" d="M0 18.4132H12.5533H18C17.8473 18.1622 17.692 17.8781 17.5375 17.5568C16.3581 15.1035 15.7584 11.6106 15.7551 7.175C15.7547 7.16358 15.7546 7.15216 15.7546 7.14068C15.7546 3.20189 12.7243 0 8.99973 0C5.27509 0 2.24486 3.20188 2.24486 7.13757C2.24486 11.591 1.64521 15.0966 0.462514 17.5568C0.308088 17.878 0.15272 18.1622 0 18.4132ZM8.9999 23.519C11.1633 23.519 12.928 21.6861 12.9792 19.4131H5.02051C5.07183 21.6862 6.8364 23.519 8.9999 23.519Z" fill="white"/>
</svg>
