<svg width="200" height="57" viewBox="0 0 200 57" fill="none" xmlns="http://www.w3.org/2000/svg">
<path fill-rule="evenodd" clip-rule="evenodd" d="M0 32.9175H27.2681V0.448975H0V32.9175Z" fill="#E21F26"/>
<path fill-rule="evenodd" clip-rule="evenodd" d="M32.5508 43.2727H43.9723V38.1978H32.5508V43.2727Z" fill="#214099"/>
<path fill-rule="evenodd" clip-rule="evenodd" d="M32.5522 0.448975V32.9175H49.2568V48.5558H27.269V38.1977H0.000976562V56.0029H55.5549V0.448975H32.5522ZM12.4689 45.2799L15.7448 42.0068L19.0179 45.2799L15.7448 48.5558L12.4689 45.2799Z" fill="#214099"/>
<path fill-rule="evenodd" clip-rule="evenodd" d="M63.2002 56.003H200V54.0471H63.2002V56.003Z" fill="#E21F26"/>
<path fill-rule="evenodd" clip-rule="evenodd" d="M63.2002 2.40206H200V0.449051H63.2002V2.40206Z" fill="#E21F26"/>
<path fill-rule="evenodd" clip-rule="evenodd" d="M70.6533 12.3105C70.6533 12.3875 70.6305 12.4474 70.5735 12.5044C70.5222 12.5586 70.4737 12.5814 70.4024 12.5814H65.3645V10.7082H70.4024C70.4737 10.7082 70.5279 10.7282 70.5792 10.7795C70.6305 10.8337 70.6533 10.8878 70.6533 10.962V12.3105ZM70.6533 14.8965V16.2451C70.6533 16.3221 70.6305 16.3819 70.5735 16.439C70.5222 16.4903 70.4737 16.5131 70.4024 16.5131H65.3645V14.6399H70.4024C70.4737 14.6399 70.5279 14.6627 70.5792 14.714C70.6305 14.7682 70.6533 14.8224 70.6533 14.8965V14.8965ZM72.3725 18.0869C72.7802 17.6792 72.9884 17.1803 72.9884 16.6015V14.8281C72.9884 14.3691 72.8259 13.9727 72.498 13.642L72.4638 13.6107L72.5037 13.5736C72.8259 13.2486 72.9884 12.8466 72.9884 12.379V10.6056C72.9884 10.0382 72.7802 9.53926 72.3725 9.1287C71.9648 8.71814 71.4659 8.51001 70.8928 8.51001H62.8926V18.6999H70.8928C71.4659 18.6999 71.9648 18.4918 72.3725 18.0869V18.0869Z" fill="#214099"/>
<mask id="mask0_8_4699" style="mask-type:alpha" maskUnits="userSpaceOnUse" x="0" y="0" width="200" height="57">
<path fill-rule="evenodd" clip-rule="evenodd" d="M0 56.0029H200V0.448975H0V56.0029Z" fill="white"/>
</mask>
<g mask="url(#mask0_8_4699)">
<path fill-rule="evenodd" clip-rule="evenodd" d="M75.1411 18.6989H77.5987V8.50903H75.1411V18.6989Z" fill="#214099"/>
<path fill-rule="evenodd" clip-rule="evenodd" d="M89.7129 8.50854H87.2552V15.1516L82.8588 8.50854H79.7539V18.6984H82.2116V11.8501L86.742 18.6984H89.7129V8.50854Z" fill="#214099"/>
<path fill-rule="evenodd" clip-rule="evenodd" d="M101.006 16.5145H95.3271L100.924 10.5414L101.006 10.453V8.5228L91.8516 8.50854V10.7068H97.531L91.8516 16.7568V18.6984H101.006V16.5145Z" fill="#214099"/>
<path fill-rule="evenodd" clip-rule="evenodd" d="M106.552 14.9601L108.145 10.8659L109.731 14.9601H106.552ZM105.579 17.1184H110.703L111.413 18.6979H113.848L109.594 8.50806H106.688L102.435 18.6979H104.884L105.579 17.1184Z" fill="#214099"/>
<path fill-rule="evenodd" clip-rule="evenodd" d="M117.367 18.6989H123.874C124.447 18.6989 124.943 18.4936 125.348 18.0859C125.753 17.6782 125.955 17.1793 125.955 16.6033V13.1164H120.552V15.3004H123.634V16.1073C123.634 16.1814 123.611 16.2356 123.56 16.2897C123.509 16.341 123.455 16.3639 123.383 16.3639H117.858C117.784 16.3639 117.727 16.3382 117.67 16.284C117.615 16.2327 117.593 16.1814 117.593 16.1073V11.115C117.593 11.0323 117.615 10.9752 117.67 10.9211C117.727 10.8669 117.784 10.8441 117.858 10.8441H123.383C123.455 10.8441 123.509 10.8669 123.56 10.9182C123.611 10.9695 123.634 11.0294 123.634 11.115V11.9845H125.955V10.6046C125.955 10.0372 125.753 9.54399 125.351 9.13058C124.946 8.71716 124.447 8.50903 123.874 8.50903H117.367C116.794 8.50903 116.295 8.71716 115.893 9.13058C115.489 9.54114 115.286 10.0372 115.286 10.6046V16.6033C115.286 17.1793 115.489 17.6782 115.893 18.0859C116.298 18.4908 116.794 18.6989 117.367 18.6989" fill="#214099"/>
<path fill-rule="evenodd" clip-rule="evenodd" d="M135.654 13.44C135.606 13.4942 135.555 13.5141 135.483 13.5141H130.568V10.8426H135.483C135.557 10.8426 135.609 10.8654 135.66 10.9168C135.711 10.9709 135.734 11.0308 135.734 11.1135V13.2461C135.734 13.3231 135.711 13.3801 135.654 13.44V13.44ZM130.568 15.8378H133.396L135.292 18.6975H138.007L136.119 15.8435L136.205 15.8349C136.724 15.7722 137.165 15.5413 137.519 15.1507C137.875 14.7601 138.055 14.2896 138.055 13.7536V10.6031C138.055 10.0386 137.853 9.54252 137.451 9.12911C137.046 8.71855 136.55 8.50757 135.974 8.50757H128.11V18.6975H130.568V15.8378Z" fill="#214099"/>
<path fill-rule="evenodd" clip-rule="evenodd" d="M70.2313 25.7353V27.8679C70.2313 27.9449 70.2085 28.0048 70.1515 28.0618C70.1002 28.1131 70.0517 28.136 69.9804 28.136H65.3502V25.4645H69.9804C70.0517 25.4645 70.1059 25.4873 70.1572 25.5386C70.2085 25.5899 70.2313 25.6526 70.2313 25.7353V25.7353ZM65.3502 30.4596H70.4708C71.0468 30.4596 71.5429 30.2515 71.9449 29.8466C72.3497 29.4389 72.5522 28.9457 72.5522 28.3754V25.225C72.5522 24.6604 72.3497 24.1643 71.9477 23.7509C71.5429 23.3404 71.0468 23.1294 70.4708 23.1294H62.8926V33.3193H65.3502V30.4596Z" fill="#214099"/>
<path fill-rule="evenodd" clip-rule="evenodd" d="M77.1627 25.4657H82.0809C82.1522 25.4657 82.2064 25.4885 82.2577 25.5398C82.309 25.5911 82.3318 25.651 82.3318 25.7365V27.8663C82.3318 27.9433 82.3062 28.0032 82.252 28.0602C82.2007 28.1144 82.1493 28.1372 82.0809 28.1372H77.1627V25.4657ZM77.1627 30.458H79.991L81.887 33.3205H84.6041L82.7167 30.4637L82.7994 30.458C83.3183 30.3924 83.7602 30.1643 84.1138 29.7737C84.473 29.3831 84.6526 28.9127 84.6526 28.3767V25.2262C84.6526 24.6588 84.4473 24.1656 84.0453 23.7522C83.6405 23.3387 83.1444 23.1306 82.5713 23.1306H74.7051V33.3205H77.1627V30.458Z" fill="#214099"/>
<path fill-rule="evenodd" clip-rule="evenodd" d="M95.4261 26.024V30.4261C95.4261 30.5829 95.3747 30.7084 95.2636 30.8196C95.1524 30.9336 95.0269 30.9849 94.8729 30.9849H89.6497C89.4957 30.9849 89.3731 30.9336 89.262 30.8196C89.1508 30.7084 89.0994 30.5829 89.0994 30.4261V26.024C89.0994 25.8672 89.1508 25.7417 89.262 25.6277C89.3731 25.5165 89.4957 25.4652 89.6497 25.4652H94.8729C95.0269 25.4652 95.1524 25.5165 95.2636 25.6277C95.3747 25.7417 95.4261 25.8672 95.4261 26.024M95.3519 23.1301H89.185C88.5207 23.1301 87.9476 23.3696 87.4857 23.8429C87.0267 24.3105 86.79 24.8836 86.79 25.5422V30.908C86.79 31.5666 87.0267 32.1396 87.4857 32.6072C87.9476 33.0805 88.5207 33.32 89.185 33.32H95.3519C96.0077 33.32 96.5751 33.0805 97.0426 32.6101C97.5102 32.1396 97.7469 31.5666 97.7469 30.908V25.5422C97.7469 24.8836 97.5102 24.3105 97.0426 23.8401C96.5751 23.3696 96.0077 23.1301 95.3519 23.1301" fill="#214099"/>
<path fill-rule="evenodd" clip-rule="evenodd" d="M99.9004 33.3205H102.387V29.4287H107.869V27.2163H102.387V25.3288H109.015V23.1306H99.9004V33.3205Z" fill="#214099"/>
<path fill-rule="evenodd" clip-rule="evenodd" d="M120.118 25.3286V23.1304H111.154V33.3203H120.118V31.1363H113.638V29.4H118.986V27.0507H113.638V25.3286H120.118Z" fill="#214099"/>
<path fill-rule="evenodd" clip-rule="evenodd" d="M124.664 25.5633C124.723 25.5063 124.786 25.4807 124.869 25.4807H130.326C130.417 25.4807 130.483 25.5035 130.537 25.5605C130.594 25.6175 130.62 25.6802 130.62 25.7629L130.648 26.182H132.604L132.94 26.1535V25.2412C132.94 24.6652 132.735 24.1635 132.333 23.7529C131.928 23.3395 131.432 23.1313 130.859 23.1313H124.353C123.777 23.1313 123.281 23.3395 122.876 23.7529C122.474 24.1635 122.271 24.6624 122.271 25.2412V27.4422C122.271 27.9554 122.454 28.4002 122.816 28.7652C123.178 29.1329 123.623 29.3183 124.133 29.3183L130.62 29.3268V30.6725C130.62 30.7552 130.602 30.818 130.574 30.8579C130.497 30.9577 130.429 30.9719 130.366 30.9719L124.843 30.9833C124.783 30.9833 124.732 30.9662 124.684 30.932C124.609 30.8693 124.578 30.798 124.578 30.6868L124.55 30.2677L122.605 30.2819L122.271 30.3105V31.1686C122.271 31.7075 122.431 32.1751 122.75 32.56C123.164 33.0646 123.703 33.3212 124.353 33.3212L130.873 33.307C131.438 33.307 131.928 33.0988 132.333 32.6854C132.735 32.2749 132.94 31.7731 132.94 31.1972V29.0103C132.94 28.4971 132.758 28.0495 132.393 27.6846C132.031 27.3196 131.586 27.1315 131.079 27.1315L124.578 27.1258V25.7629C124.578 25.6802 124.604 25.6232 124.664 25.5633" fill="#214099"/>
<path fill-rule="evenodd" clip-rule="evenodd" d="M135.699 23.7522C135.297 24.1627 135.092 24.6617 135.092 25.2404V27.4415C135.092 27.9547 135.277 28.3995 135.639 28.7644C136.001 29.1322 136.446 29.3175 136.956 29.3175L143.44 29.3261V30.6747C143.44 30.7545 143.423 30.8172 143.394 30.86C143.32 30.9569 143.252 30.9712 143.189 30.9712L137.666 30.9854C137.604 30.9854 137.552 30.9655 137.507 30.9313C137.433 30.8714 137.401 30.7973 137.401 30.6861L137.373 30.267L135.428 30.2841L135.092 30.3097V31.1679C135.092 31.7068 135.254 32.1772 135.571 32.5621C135.987 33.0639 136.526 33.3205 137.176 33.3205L143.694 33.3062C144.261 33.3062 144.751 33.0981 145.156 32.6847C145.558 32.2713 145.764 31.7723 145.764 31.1964V29.0096C145.764 28.4964 145.578 28.0516 145.216 27.6838C144.851 27.3189 144.409 27.1336 143.899 27.1336L137.401 27.125V25.7622C137.401 25.6795 137.427 25.6196 137.484 25.5655C137.544 25.5056 137.609 25.4799 137.692 25.4799H143.149C143.24 25.4799 143.306 25.5056 143.36 25.5598C143.414 25.6168 143.44 25.6795 143.44 25.7622L143.468 26.1813H145.427L145.764 26.1528V25.2404C145.764 24.6645 145.558 24.1656 145.156 23.7522C144.751 23.3387 144.255 23.1306 143.682 23.1306H137.173C136.6 23.1306 136.104 23.3387 135.699 23.7522" fill="#214099"/>
<path fill-rule="evenodd" clip-rule="evenodd" d="M147.915 33.3195H150.373V23.1296H147.915V33.3195Z" fill="#214099"/>
<path fill-rule="evenodd" clip-rule="evenodd" d="M161.161 26.024V30.4261C161.161 30.5829 161.11 30.7084 160.999 30.8224C160.888 30.9336 160.762 30.9849 160.608 30.9849H155.385C155.231 30.9849 155.106 30.9336 154.997 30.8196C154.886 30.7084 154.835 30.5829 154.835 30.4261V26.024C154.835 25.8672 154.886 25.7417 154.997 25.6306C155.106 25.5165 155.231 25.4652 155.385 25.4652H160.608C160.762 25.4652 160.888 25.5165 160.996 25.6277C161.11 25.7417 161.161 25.8672 161.161 26.024M161.087 23.1301H154.92C154.256 23.1301 153.683 23.3696 153.221 23.8429C152.759 24.3105 152.525 24.8836 152.525 25.5422V30.908C152.525 31.5666 152.759 32.1396 153.221 32.6072C153.683 33.0805 154.256 33.32 154.92 33.32H161.087C161.743 33.32 162.31 33.0805 162.778 32.6101C163.246 32.1396 163.482 31.5666 163.482 30.908V25.5422C163.482 24.8836 163.246 24.3105 162.778 23.8401C162.31 23.3696 161.743 23.1301 161.087 23.1301" fill="#214099"/>
<path fill-rule="evenodd" clip-rule="evenodd" d="M173.137 29.7735L168.741 23.1304H165.636V33.3203H168.091V26.469L172.624 33.3203H175.595V23.1304H173.137V29.7735Z" fill="#214099"/>
<path fill-rule="evenodd" clip-rule="evenodd" d="M184.304 29.5815H181.125L182.721 25.4873L184.304 29.5815ZM181.262 23.1294L177.008 33.3193H179.457L180.153 31.7398H185.276L185.986 33.3193H188.421L184.167 23.1294H181.262Z" fill="#214099"/>
<path fill-rule="evenodd" clip-rule="evenodd" d="M192.318 30.9847V23.1299H189.86V33.3198H198.362V30.9847H192.318Z" fill="#214099"/>
<path fill-rule="evenodd" clip-rule="evenodd" d="M71.4801 37.7518H64.9739C64.398 37.7518 63.9019 37.96 63.4999 38.3734C63.095 38.7839 62.8926 39.2857 62.8926 39.8617V42.0627C62.8926 42.5759 63.075 43.0235 63.4371 43.3856C63.8021 43.7534 64.244 43.9388 64.7544 43.9388L71.2406 43.9473V45.2959C71.2406 45.3757 71.2235 45.4384 71.1922 45.4812C71.118 45.5781 71.0525 45.5924 70.9869 45.5924L65.4643 45.6067C65.4044 45.6067 65.3502 45.5867 65.3046 45.5525C65.2305 45.4926 65.1991 45.4185 65.1991 45.3101L65.1735 44.8882L63.2262 44.9053L62.8926 44.9309V45.792C62.8926 46.3308 63.0522 46.7984 63.3716 47.1833C63.785 47.688 64.3238 47.9417 64.9739 47.9417L71.4944 47.9275C72.0589 47.9275 72.5522 47.7193 72.9542 47.3059C73.3562 46.8954 73.5615 46.3936 73.5615 45.8176V43.6308C73.5615 43.1176 73.379 42.6729 73.014 42.3051C72.6519 41.9401 72.2072 41.7548 71.6968 41.7548L65.1991 41.7462V40.3834C65.1991 40.3036 65.2248 40.2437 65.2818 40.1867C65.3445 40.1268 65.4073 40.1011 65.4928 40.1011H70.947C71.0382 40.1011 71.1038 40.1268 71.158 40.181C71.215 40.238 71.2406 40.3007 71.2406 40.3834L71.2663 40.8025H73.225L73.5615 40.774V39.8617C73.5615 39.2857 73.3562 38.7839 72.9542 38.3734C72.5522 37.96 72.0532 37.7518 71.4801 37.7518" fill="#214099"/>
<path fill-rule="evenodd" clip-rule="evenodd" d="M83.9954 40.6457V45.0478C83.9954 45.2046 83.9441 45.3301 83.8329 45.4413C83.7217 45.5553 83.5991 45.6067 83.4451 45.6067H78.219C78.0651 45.6067 77.9425 45.5553 77.8313 45.4413C77.7201 45.3301 77.6688 45.2046 77.6688 45.0478V40.6457C77.6688 40.4889 77.7201 40.3635 77.8313 40.2494C77.9425 40.1382 78.0651 40.0869 78.219 40.0869H83.4451C83.5962 40.0869 83.7217 40.1382 83.8329 40.2494C83.9441 40.3635 83.9954 40.4889 83.9954 40.6457M83.9213 37.7518H77.7543C77.09 37.7518 76.5169 37.9913 76.055 38.4646C75.596 38.9322 75.3594 39.5053 75.3594 40.1639V45.5297C75.3594 46.1883 75.596 46.7614 76.055 47.2318C76.5169 47.7022 77.09 47.9417 77.7543 47.9417H83.9213C84.577 47.9417 85.1444 47.7022 85.612 47.2318C86.0796 46.7614 86.3162 46.1883 86.3162 45.5297V40.1639C86.3162 39.5053 86.0796 38.9322 85.612 38.4618C85.1444 37.9913 84.577 37.7518 83.9213 37.7518" fill="#214099"/>
<path fill-rule="evenodd" clip-rule="evenodd" d="M90.5719 37.7518H88.1143V47.9417H96.6134V45.6067H90.5719V37.7518Z" fill="#214099"/>
<path fill-rule="evenodd" clip-rule="evenodd" d="M105.915 45.3503C105.915 45.4244 105.893 45.4814 105.841 45.5328C105.79 45.5841 105.736 45.6069 105.664 45.6069H101.123C101.048 45.6069 100.997 45.5841 100.943 45.5328C100.892 45.4814 100.869 45.4244 100.869 45.3503V37.7521H98.4141V45.8464C98.4141 46.4252 98.6165 46.9241 99.0213 47.329C99.4234 47.7367 99.9195 47.942 100.493 47.942H106.292C106.865 47.942 107.361 47.7367 107.766 47.329C108.168 46.9213 108.373 46.4223 108.373 45.8464V37.7521H105.915V45.3503Z" fill="#214099"/>
<path fill-rule="evenodd" clip-rule="evenodd" d="M110.171 40.0875H113.991V47.9423H116.449V40.0875H120.267V37.7524H110.171V40.0875Z" fill="#214099"/>
<path fill-rule="evenodd" clip-rule="evenodd" d="M122.068 47.9428H124.525V37.7529H122.068V47.9428Z" fill="#214099"/>
<path fill-rule="evenodd" clip-rule="evenodd" d="M134.957 40.6457V45.0478C134.957 45.2046 134.906 45.3301 134.795 45.4441C134.684 45.5553 134.561 45.6067 134.407 45.6067H129.181C129.027 45.6067 128.904 45.5553 128.793 45.4413C128.682 45.3301 128.631 45.2046 128.631 45.0478V40.6457C128.631 40.4889 128.682 40.3635 128.793 40.2494C128.904 40.1382 129.027 40.0869 129.181 40.0869H134.407C134.561 40.0869 134.684 40.1382 134.795 40.2494C134.906 40.3635 134.957 40.4889 134.957 40.6457M134.883 37.7518H128.719C128.052 37.7518 127.479 37.9913 127.017 38.4646C126.558 38.9322 126.321 39.5053 126.321 40.1639V45.5297C126.321 46.1883 126.558 46.7614 127.017 47.2318C127.479 47.7022 128.052 47.9417 128.719 47.9417H134.883C135.539 47.9417 136.109 47.7022 136.577 47.2318C137.041 46.7614 137.278 46.1883 137.278 45.5297V40.1639C137.278 39.5053 137.041 38.9322 136.577 38.4618C136.109 37.9913 135.539 37.7518 134.883 37.7518" fill="#214099"/>
<path fill-rule="evenodd" clip-rule="evenodd" d="M146.579 44.3952L142.183 37.7521H139.075V47.942H141.533V41.0907L146.066 47.942H149.037V37.7521H146.579V44.3952Z" fill="#214099"/>
<path fill-rule="evenodd" clip-rule="evenodd" d="M159.41 37.7518H152.904C152.328 37.7518 151.832 37.96 151.427 38.3734C151.025 38.7839 150.822 39.2857 150.822 39.8617V42.0627C150.822 42.5759 151.005 43.0235 151.367 43.3856C151.729 43.7534 152.174 43.9388 152.684 43.9388L159.17 43.9473V45.2959C159.17 45.3757 159.153 45.4384 159.125 45.4812C159.048 45.5781 158.982 45.5924 158.917 45.5924L153.394 45.6067C153.334 45.6067 153.283 45.5867 153.234 45.5525C153.16 45.4926 153.129 45.4185 153.129 45.3101L153.1 44.8882L151.156 44.9053L150.822 44.9309V45.792C150.822 46.328 150.982 46.7984 151.301 47.1833C151.715 47.688 152.254 47.9417 152.904 47.9417L159.424 47.9275C159.989 47.9275 160.479 47.7193 160.884 47.3059C161.286 46.8954 161.491 46.3936 161.491 45.8176V43.6308C161.491 43.1176 161.309 42.6729 160.944 42.3051C160.582 41.9401 160.137 41.7548 159.629 41.7548L153.129 41.7462V40.3834C153.129 40.3036 153.154 40.2437 153.214 40.1838C153.274 40.1268 153.337 40.1011 153.42 40.1011H158.877C158.968 40.1011 159.033 40.1268 159.088 40.181C159.145 40.238 159.17 40.3007 159.17 40.3834L159.199 40.8025H161.155L161.491 40.774V39.8617C161.491 39.2857 161.286 38.7839 160.884 38.3734C160.479 37.96 159.983 37.7518 159.41 37.7518" fill="#214099"/>
<path fill-rule="evenodd" clip-rule="evenodd" d="M32.5512 43.2727H43.9727V38.1977H32.5512V43.2727ZM32.5512 32.9175V0.448975H27.2709V32.9175H0V38.1977H27.2709V48.5558H49.2559V32.9175H32.5512Z" fill="#FEFEFE"/>
<path fill-rule="evenodd" clip-rule="evenodd" d="M15.7437 48.5555L12.4678 45.2796L15.7437 42.0037L19.0196 45.2796L15.7437 48.5555Z" fill="#FEFEFE"/>
</g>
</svg>
