<svg width="24" height="22" viewBox="0 0 24 22" fill="none" xmlns="http://www.w3.org/2000/svg">
<path fill-rule="evenodd" clip-rule="evenodd" d="M20.9109 13.2881C20.8902 13.3231 20.8658 13.3557 20.8378 13.3846C20.6916 13.5498 20.4631 13.6573 20.2066 13.6573H9.16884L9.57648 15.1747H20.8738C21.4941 15.1747 21.9974 15.5329 21.9974 15.9752C21.9974 16.4169 21.4941 16.7757 20.8738 16.7757H8.2749L4.3434 1.78341L0.904266 1.69799C0.394866 1.70047 0.0024662 1.22622 6.20639e-06 0.757473C-0.00179379 0.288725 0.388146 0.00181474 0.898206 0L4.80162 0.0192363C5.22354 0.021293 5.59512 0.299735 5.71872 0.706479L6.57426 3.88688H22.5971C22.9328 3.88688 23.2603 3.99177 23.5345 4.18709C23.9471 4.48108 24.1082 5.02055 23.925 5.49534L20.9834 13.1216C20.97 13.1689 20.9518 13.2131 20.9286 13.2556C20.9237 13.2666 20.9176 13.2765 20.9115 13.2869L20.9109 13.2881ZM10.9621 17.774C9.80436 17.774 8.86596 18.7201 8.86596 19.8873C8.86596 21.0539 9.80436 22 10.9621 22C12.1193 22 13.0577 21.0539 13.0577 19.8873C13.0577 18.7201 12.1193 17.774 10.9621 17.774ZM18.5893 17.774C17.4316 17.774 16.4932 18.7201 16.4932 19.8873C16.4932 21.0539 17.4316 22 18.5893 22C19.7464 22 20.6849 21.0539 20.6849 19.8873C20.6849 18.7201 19.7464 17.774 18.5893 17.774Z" fill="white"/>
</svg>
