<svg width="80" height="72" viewBox="0 0 80 72" fill="none" xmlns="http://www.w3.org/2000/svg">
<mask id="mask0_71_318" style="mask-type:alpha" maskUnits="userSpaceOnUse" x="0" y="0" width="80" height="72">
<path fill-rule="evenodd" clip-rule="evenodd" d="M0 0H80V72H0V0Z" fill="white"/>
</mask>
<g mask="url(#mask0_71_318)">
<path fill-rule="evenodd" clip-rule="evenodd" d="M33.8638 45.3691C39.2025 50.7503 44.5412 56.1259 49.891 61.4904C53.9948 65.5957 59.1283 58.9662 55.7724 55.5989L42.11 41.9186L39.114 38.9173C37.8456 37.647 39.8282 35.6611 41.0966 36.9313L44.0928 39.9326L54.0944 49.9514L57.7496 53.6183C58.5637 54.4284 59.6269 54.8333 60.6903 54.8333C64.3842 54.8333 66.2394 50.3397 63.6308 47.727L46.9725 31.0454C45.7042 29.7749 47.6868 27.7889 48.955 29.0594L65.608 45.7465C66.4221 46.5563 67.4855 46.9614 68.5487 46.9614C72.2426 46.9614 74.0978 42.4678 71.4894 39.8549C64.229 32.5874 56.9575 25.3257 49.6751 18.075L43.3615 24.3994C40.133 27.6337 34.8994 27.6337 31.6707 24.3994C28.442 21.165 28.442 15.9172 31.6707 12.6886L38.0173 6.3309C29.2562 -2.1735 15.2559 -2.12908 6.56679 6.58062C-2.18893 15.3459 -2.18893 29.5641 6.56679 38.3349L13.0795 44.8589L13.8051 43.9824L18.7782 39.0007C22.821 34.9564 29.8212 38.2351 29.2728 43.971C31.7096 43.7381 32.9225 44.4205 33.8638 45.3691ZM20.5448 50.7336L25.5457 45.7241C28.3258 42.5234 23.9727 37.7636 20.7552 40.9865L15.7654 45.9905C15.123 46.6395 14.8019 47.4937 14.8019 48.3484C14.8019 51.3438 18.4348 52.8472 20.5448 50.7336ZM27.4951 47.738L22.5274 52.7142C20.4119 54.8333 21.9126 58.4669 24.9033 58.4669C25.7616 58.4669 26.6255 58.1397 27.2845 57.4796L32.2524 52.5034C35.4201 49.33 30.5962 44.6313 27.4951 47.738ZM34.2348 54.4894L29.2616 59.4654C27.1518 61.5791 28.6525 65.2184 31.643 65.2184C32.5014 65.2184 33.3654 64.891 34.0189 64.2309L38.9921 59.2492C42.1377 56.0981 37.3693 51.3661 34.2348 54.4894ZM40.9692 61.2352L36.0013 66.2169C32.834 69.3846 37.6575 74.089 40.7588 70.9823L45.7265 66.0006C48.8387 62.8885 44.0705 58.1286 40.9692 61.2352ZM49.664 14.1253C57.6111 22.0304 65.547 29.936 73.4666 37.8744L73.677 38.0908C82.1945 29.298 82.1004 15.2625 73.4333 6.58062C64.7442 -2.12908 50.683 -2.19581 41.9107 6.40311L40 8.31692L33.6479 14.6689C31.5158 16.8102 31.5158 20.2775 33.6479 22.4134C35.7854 24.5548 39.2468 24.5548 41.3846 22.4134C44.1424 19.6506 46.9059 16.8881 49.664 14.1253Z" fill="#214099"/>
</g>
</svg>
