<svg width="65" height="64" viewBox="0 0 65 64" fill="none" xmlns="http://www.w3.org/2000/svg">
<path fill-rule="evenodd" clip-rule="evenodd" d="M28.9348 40.9482C21.6384 40.9482 15.7217 43.9045 15.7217 47.5527C15.7217 49.8855 18.1433 51.9363 21.7949 53.1116C21.8259 53.1219 21.8573 53.1313 21.8884 53.1414C21.9536 53.162 22.0178 53.1808 22.0839 53.2009C22.2669 53.2574 22.4515 53.3119 22.6363 53.3624C22.8257 53.4139 23.0151 53.4615 23.2058 53.5069C23.37 53.5459 23.5338 53.5829 23.6988 53.6173C25.3045 53.9643 27.0743 54.1571 28.9348 54.1571C29.2234 54.1571 29.5092 54.1492 29.7933 54.1401C29.9575 54.1366 30.1221 54.1297 30.2863 54.1231C30.2963 54.1225 30.306 54.1237 30.316 54.1231C32.1665 54.0467 34.0035 53.7683 35.7432 53.2136C35.7658 53.2064 35.7886 53.1997 35.8112 53.1923C39.6102 52.0322 42.1478 49.9414 42.1478 47.5526C42.1478 43.9045 36.2311 40.9482 28.9348 40.9482Z" fill="#4D64AD"/>
<path fill-rule="evenodd" clip-rule="evenodd" d="M15.9554 51.2373C15.8035 51.6381 15.7217 52.0512 15.7217 52.4741C15.7217 54.5698 17.6746 56.4365 20.7196 57.6463C20.748 57.658 20.7761 57.6687 20.8046 57.6803C20.8792 57.7094 20.954 57.7369 21.0299 57.7653C22.5361 58.3496 24.1455 58.7026 25.7389 58.8872C25.7867 58.8914 25.8353 58.896 25.8833 58.9C26.8629 59.0158 27.8844 59.0785 28.9348 59.0785C29.9395 59.0785 30.9181 59.019 31.8587 58.9128C31.9355 58.9051 32.0116 58.8956 32.0882 58.8872C32.1377 58.8812 32.1877 58.8766 32.237 58.8702C33.8865 58.6784 35.5006 58.3142 37.0225 57.693C40.1394 56.485 42.1478 54.5986 42.1478 52.4741C42.1478 52.0663 42.0726 51.6672 41.9311 51.2798C41.7476 51.4827 41.5538 51.672 41.3489 51.845C37.2517 54.9816 31.8335 55.8433 26.7801 55.4235C22.9551 55.0221 18.7829 54.1687 16.0362 51.3054C16.0091 51.2825 15.9818 51.2608 15.9554 51.2373Z" fill="#4D64AD"/>
<mask id="mask0_71_564" style="mask-type:alpha" maskUnits="userSpaceOnUse" x="15" y="56" width="28" height="8">
<path fill-rule="evenodd" clip-rule="evenodd" d="M15.7217 56.1543H42.1478V63.9997H15.7217V56.1543Z" fill="white"/>
</mask>
<g mask="url(#mask0_71_564)">
<path fill-rule="evenodd" clip-rule="evenodd" d="M41.9099 56.1543C39.615 58.5277 36.2665 59.6337 33.0445 60.1323C27.8858 60.7785 22.2515 60.4786 17.7616 57.6291C17.0813 57.2744 16.4591 56.7872 15.9384 56.2096C15.7987 56.5947 15.7217 56.99 15.7217 57.3953C15.7217 61.0435 21.6384 63.9997 28.9348 63.9997C36.2311 63.9997 42.1478 61.0435 42.1478 57.3953C42.1478 56.9706 42.063 56.5566 41.9099 56.1543Z" fill="#4D64AD"/>
</g>
<path fill-rule="evenodd" clip-rule="evenodd" d="M50.7883 30.9268C43.4919 30.9268 37.5752 33.883 37.5752 37.5311C37.5752 39.8393 39.9464 41.8708 43.5336 43.0518C43.6565 43.0932 43.7794 43.1323 43.9034 43.1708C43.9333 43.18 43.9625 43.1916 43.9926 43.2006C44.5103 43.3584 45.0364 43.4941 45.5651 43.6043C47.1672 43.9495 48.9329 44.1398 50.7883 44.1398C51.3072 44.1398 51.8149 44.1222 52.3183 44.0931C54.0966 44.0089 55.8625 43.7365 57.5372 43.209C61.4039 42.0567 63.9971 39.9453 63.9971 37.5311C63.9971 33.883 58.0846 30.9268 50.7883 30.9268Z" fill="#4D64AD"/>
<path fill-rule="evenodd" clip-rule="evenodd" d="M63.7846 41.2627C63.6011 41.4655 63.4073 41.6549 63.2024 41.828C59.1052 44.9644 53.687 45.826 48.6335 45.4064C46.452 45.1775 44.1586 44.799 42.0801 43.9869C43.0349 45.0744 43.5883 46.5515 43.4911 47.9691C44.8186 48.4231 46.2114 48.71 47.5923 48.87C47.6405 48.8743 47.6885 48.8788 47.7368 48.8828C48.7165 48.9986 49.7379 49.0613 50.7883 49.0613C51.793 49.0613 52.7673 49.0018 53.708 48.8956C53.8601 48.8804 54.0111 48.8585 54.1627 48.8404C55.6894 48.6576 57.1887 48.3262 58.6081 47.7779C61.8776 46.5757 64.0013 44.6418 64.0013 42.4569C64.0013 42.0491 63.9261 41.6501 63.7846 41.2627Z" fill="#4D64AD"/>
<path fill-rule="evenodd" clip-rule="evenodd" d="M63.7631 46.1377C61.4682 48.511 58.1197 49.617 54.8976 50.1156C51.0343 50.5996 46.9054 50.5504 43.189 49.2997C43.0935 49.5357 42.9748 49.7629 42.832 49.9839C43.3676 50.8407 43.572 51.8738 43.478 52.8823C45.5719 53.5788 48.0845 53.9831 50.788 53.9831C58.0843 53.9831 64.001 51.0268 64.001 47.3787C64.001 46.954 63.9162 46.54 63.7631 46.1377Z" fill="#4D64AD"/>
<path fill-rule="evenodd" clip-rule="evenodd" d="M63.7672 51.0635C61.7959 53.1532 58.8932 54.2411 56.1172 54.8162C51.8738 55.5706 47.2891 55.6 43.1762 54.2042C43.0775 54.4649 42.9568 54.7171 42.8149 54.9565C43.3745 55.7837 43.586 56.8121 43.4906 57.8081C45.582 58.5021 48.0898 58.9046 50.7878 58.9046C58.0842 58.9046 64.0009 55.9484 64.0009 52.3002C64.0009 51.8774 63.919 51.4643 63.7672 51.0635Z" fill="#4D64AD"/>
<mask id="mask1_71_564" style="mask-type:alpha" maskUnits="userSpaceOnUse" x="0" y="0" width="51" height="48">
<path fill-rule="evenodd" clip-rule="evenodd" d="M0 0H50.6957V47.9936H0V0Z" fill="white"/>
</mask>
<g mask="url(#mask1_71_564)">
<path fill-rule="evenodd" clip-rule="evenodd" d="M43.2819 23.9694C42.7313 23.9694 42.2899 24.4112 42.2899 24.9615V25.7294C42.2899 26.28 42.7313 26.7214 43.2819 26.7214H45.1099C45.6604 26.7214 46.1019 26.28 46.1019 25.7294V24.9615C46.1019 24.4112 45.6604 23.9694 45.1099 23.9694H43.2819ZM5.58547 23.9694C5.035 23.9694 4.59352 24.4112 4.59352 24.9615V25.7294C4.59352 26.28 5.035 26.7214 5.58547 26.7214H7.4175C7.96805 26.7214 8.40952 26.28 8.40952 25.7294V24.9615C8.40952 24.4112 7.96805 23.9694 7.4175 23.9694H5.58547ZM32.9098 11.2334C32.3817 11.2304 31.894 11.5156 31.6377 11.9774L24.3937 24.5135C24.1965 24.7577 24.0841 25.0597 24.0737 25.3735C24.0707 25.3919 24.068 25.4107 24.0657 25.4294C24.0679 25.4495 24.0706 25.4695 24.0737 25.4895C24.0731 25.5123 24.0731 25.5347 24.0737 25.5575C24.0748 25.5707 24.0761 25.5842 24.0776 25.5975C24.0951 25.7967 24.1537 25.99 24.2496 26.1655L29.2977 39.1576C30.3654 39.1666 31.4327 39.2416 32.4897 39.3816L27.1177 25.5695L34.1417 13.4213C34.5521 12.7363 34.3295 11.8484 33.6444 11.4381C33.6303 11.4296 33.6161 11.4214 33.6017 11.4134C33.3897 11.2964 33.1518 11.2344 32.9097 11.2334H32.9098ZM24.9697 4.58931C24.4191 4.58931 23.9777 5.03905 23.9777 5.58926V7.41329C23.9777 7.96403 24.4191 8.40931 24.9697 8.40931H25.7297C26.2802 8.40931 26.7297 7.96403 26.7297 7.41329V5.58926C26.7297 5.03878 26.2802 4.58931 25.7297 4.58931H24.9697ZM25.1137 0.00122598C23.0238 0.0219597 20.9017 0.307231 18.7896 0.873241C5.2724 4.49531 -2.75248 18.3922 0.869455 31.9095C2.81829 39.1823 7.74311 44.8606 13.9816 47.9937C13.9174 47.1327 14.0203 46.2584 14.3496 45.4576C14.5436 45.0509 14.775 44.6699 15.0336 44.3136C14.8736 44.2264 14.7124 44.1371 14.5536 44.0457C4.22971 38.0853 0.697052 24.8805 6.65749 14.5574C10.6615 7.62156 17.9301 3.75356 25.4017 3.76529H25.4056C29.054 3.77029 32.7515 4.70258 36.1377 6.65728C44.3246 11.3841 48.2434 20.6647 46.5418 29.4535C47.7008 29.2787 48.8692 29.1863 50.0179 29.1575C50.1465 29.1563 50.2768 29.1575 50.4059 29.1575C50.9187 25.7987 50.7653 22.2842 49.8299 18.7934C48.0189 12.0346 43.6337 6.64754 38.0178 3.40529C34.1568 1.17651 29.7113 -0.0442415 25.1136 0.00122598H25.1137Z" fill="#4D64AD"/>
</g>
</svg>
