<svg width="75" height="72" viewBox="0 0 75 72" fill="none" xmlns="http://www.w3.org/2000/svg">
<path fill-rule="evenodd" clip-rule="evenodd" d="M16.698 32.4008C11.9578 32.4008 7.21742 32.4024 2.47726 32.3999C0.955467 32.3989 0.502754 31.9571 0.50229 30.4562C0.499276 20.9605 0.499276 11.4649 0.502058 1.96939C0.502522 0.479429 0.979806 0.00306696 2.47911 0.00260402C11.9597 -0.000868007 21.44 -0.000868007 30.9205 0.00260402C32.4069 0.00306696 32.9154 0.500493 32.9161 1.97263C32.921 11.4684 32.921 20.9639 32.9161 30.4595C32.9152 31.9453 32.4377 32.3989 30.9187 32.3999C26.1785 32.4024 21.4381 32.4008 16.698 32.4008Z" fill="#214099"/>
<path fill-rule="evenodd" clip-rule="evenodd" d="M74.4998 16.1815C74.5202 25.1238 67.2759 32.382 58.3257 32.3861C49.3765 32.3905 42.0865 25.1488 42.0681 16.2364C42.0498 7.34172 49.35 0.0317138 58.2699 0.0127334C67.204 -0.00647847 74.4794 7.24149 74.4998 16.1815Z" fill="#214099"/>
<path fill-rule="evenodd" clip-rule="evenodd" d="M16.688 43.5335C18.9998 43.5335 21.3116 43.5516 23.6229 43.5245C24.5297 43.5138 25.1248 43.8543 25.5809 44.6559C27.8489 48.6402 30.1428 52.6099 32.4623 56.5643C32.9613 57.4149 32.9354 58.1413 32.4435 58.9803C30.1398 62.9104 27.8591 66.8544 25.6044 70.8128C25.1363 71.6347 24.5374 72.0046 23.587 71.9995C18.9926 71.9747 14.398 71.9768 9.80367 71.9981C8.90079 72.0023 8.29115 71.693 7.83264 70.8894C5.54612 66.8824 3.2355 62.8891 0.902162 58.909C0.421401 58.0889 0.44319 57.3855 0.919316 56.574C3.23875 52.6193 5.54056 48.6541 7.80575 44.6682C8.28373 43.827 8.90519 43.5094 9.83983 43.5229C12.1222 43.5555 14.4052 43.5335 16.688 43.5335Z" fill="#214099"/>
<path fill-rule="evenodd" clip-rule="evenodd" d="M58.2346 71.9892C53.5234 71.9892 48.812 71.992 44.1008 71.9878C42.2302 71.9862 41.6196 70.9122 42.5605 69.284C47.2934 61.0931 52.028 52.9028 56.7643 44.7139C57.6632 43.1598 58.9441 43.1723 59.8526 44.7433C64.573 52.9081 69.2921 61.0739 74.0095 69.2405C74.9857 70.9305 74.3883 71.9869 72.4553 71.9883C67.7149 71.9913 62.9748 71.9892 58.2346 71.9892Z" fill="#214099"/>
</svg>
