<svg width="77" height="80" viewBox="0 0 77 80" fill="none" xmlns="http://www.w3.org/2000/svg">
<mask id="mask0_71_304" style="mask-type:alpha" maskUnits="userSpaceOnUse" x="0" y="11" width="69" height="69">
<path fill-rule="evenodd" clip-rule="evenodd" d="M0.100586 11.9463H68.3345V79.9997H0.100586V11.9463Z" fill="white"/>
</mask>
<g mask="url(#mask0_71_304)">
<path fill-rule="evenodd" clip-rule="evenodd" d="M54.6225 29.9282C58.1011 34.365 60.1845 39.9439 60.1845 45.973C60.1845 53.1562 57.2785 59.6468 52.603 64.3099C47.8645 69.0357 41.3568 71.9342 34.2176 71.9342C27.0153 71.9342 20.5075 69.0357 15.8321 64.3099C11.0936 59.6468 8.1875 53.1562 8.1875 45.973C8.1875 38.8526 11.0936 32.3621 15.8321 27.6362C20.5075 22.9731 27.0153 20.0747 34.2176 20.0747C39.1146 20.0747 43.7148 21.4387 47.651 23.7996L53.1064 17.6448C47.6917 14.0597 41.1982 11.9463 34.2176 11.9463C24.8036 11.9463 16.2744 15.7899 10.0829 21.9022C3.89133 28.0773 0.100586 36.584 0.100586 45.973C0.100586 55.362 3.89133 63.8686 10.0829 70.0438C16.2744 76.219 24.8036 79.9998 34.2176 79.9998C43.6315 79.9998 52.1607 76.219 58.3522 70.0438C64.4807 63.8686 68.3345 55.362 68.3345 45.973C68.3345 37.4957 65.1924 29.7374 60.0717 23.7662L54.6225 29.9282Z" fill="#214099"/>
</g>
<path fill-rule="evenodd" clip-rule="evenodd" d="M45.4984 26.2275C42.1642 24.3249 38.2982 23.2256 34.2176 23.2256C27.8999 23.2256 22.2138 25.8087 18.1068 29.9048C13.9367 34.0009 11.4099 39.7349 11.4099 45.9729C11.4099 52.2739 13.9367 57.945 18.1068 62.0411C22.2138 66.2001 27.8999 68.7204 34.2176 68.7204C40.4721 68.7204 46.2214 66.2001 50.3284 62.0411C54.4354 57.945 57.0253 52.2739 57.0253 45.9729C57.0253 40.9012 55.3129 36.1621 52.4658 32.3662L46.9047 38.6548C47.2107 39.1782 47.4833 39.7228 47.7222 40.2856C48.4645 42.035 48.8753 43.9558 48.8753 45.9729C48.8753 50.0062 47.2331 53.7231 44.5792 56.37C41.9252 59.017 38.2616 60.6548 34.2176 60.6548C30.1736 60.6548 26.51 59.017 23.856 56.37C21.139 53.7231 19.4968 50.0062 19.4968 45.9729C19.4968 41.9397 21.139 38.2857 23.856 35.6388C26.51 32.9918 30.1736 31.354 34.2176 31.354C36.2442 31.354 38.1751 31.7647 39.9312 32.5091L45.4984 26.2275Z" fill="#214099"/>
<path fill-rule="evenodd" clip-rule="evenodd" d="M33.6024 39.6493L37.6464 35.0866C36.5655 34.7489 35.4144 34.5684 34.2176 34.5684C31.0583 34.5684 28.1522 35.8279 26.0677 37.9079C24.0452 39.9869 22.7192 42.8225 22.7192 45.9735C22.7192 49.1245 24.0452 52.0229 26.0677 54.1019C28.1522 56.1191 31.0583 57.4415 34.2176 57.4415C37.377 57.4415 40.22 56.1191 42.3045 54.1019C44.3901 52.0229 45.653 49.1245 45.653 45.9735C45.653 44.2788 45.2879 42.6755 44.626 41.2324L40.582 45.8052C40.5841 45.8711 40.5851 45.938 40.5851 46.0049C40.5851 49.524 37.7146 52.3869 34.1861 52.3869C30.6576 52.3869 27.7871 49.524 27.7871 46.0049C27.7871 42.6826 30.3466 39.9444 33.6024 39.6493Z" fill="#214099"/>
<mask id="mask1_71_304" style="mask-type:alpha" maskUnits="userSpaceOnUse" x="30" y="0" width="47" height="50">
<path fill-rule="evenodd" clip-rule="evenodd" d="M30.8376 0H76.1007V49.3443H30.8376V0Z" fill="white"/>
</mask>
<g mask="url(#mask1_71_304)">
<path fill-rule="evenodd" clip-rule="evenodd" d="M75.5379 7.97618C75.4118 7.85039 75.2694 7.75607 75.1108 7.69222C74.9522 7.62936 74.7793 7.59789 74.5892 7.59789L68.6509 7.09382L67.45 1.23408C67.2608 0.414656 66.4392 -0.152277 65.5546 0.0363704C65.1763 0.100294 64.8601 0.288942 64.6709 0.540447L58.5425 7.4721C58.2577 7.75607 58.1153 8.14555 58.1153 8.5086C58.1153 8.63028 58.1317 8.74791 58.1632 8.85847L58.7316 11.5967L59.4546 15.0762V15.0773L57.6934 17.064L55.5834 19.4441L50.1881 25.5311L48.0639 27.9276L42.6584 34.0256L40.5118 36.4464L34.9263 42.7483C34.6884 42.6946 34.4403 42.6652 34.1861 42.6652C32.3365 42.6652 30.8376 44.16 30.8376 46.0048C30.8376 47.8495 32.3365 49.3443 34.1861 49.3443C36.0358 49.3443 37.5345 47.8495 37.5345 46.0048C37.5345 45.6082 37.4645 45.2269 37.3373 44.8739L42.9146 38.567L45.0602 36.1411L50.4585 30.037L52.5919 27.6253L57.9761 21.5364L60.0779 19.1602L61.7821 17.2333L65.3766 17.5183L68.2085 17.7434L69.5985 17.1136L75.664 10.2448C76.2955 9.55218 76.2324 8.54304 75.5379 7.97618Z" fill="#214099"/>
</g>
</svg>
