<svg width="66" height="80" viewBox="0 0 66 80" fill="none" xmlns="http://www.w3.org/2000/svg">
<mask id="mask0_71_334" style="mask-type:alpha" maskUnits="userSpaceOnUse" x="0" y="0" width="66" height="66">
<path fill-rule="evenodd" clip-rule="evenodd" d="M0 0H66V65.8718H0V0Z" fill="white"/>
</mask>
<g mask="url(#mask0_71_334)">
<path fill-rule="evenodd" clip-rule="evenodd" d="M33.0142 9.39896C20.0485 9.38294 9.47044 19.9315 9.44209 32.9053C9.41375 45.8723 19.9526 56.4406 32.9429 56.4722C45.9688 56.5038 56.5752 45.9324 56.5601 32.9324C56.5452 19.9539 46.0007 9.41499 33.0142 9.39896ZM47.6162 61.6331C46.5049 61.4599 45.0502 61.2396 43.5979 61.0046C41.5667 60.6758 39.731 61.1406 38.11 62.388C36.9673 63.267 35.8856 64.2253 34.7384 65.0979C33.3749 66.1351 32.6186 66.1278 31.2435 65.0876C30.3757 64.4308 29.5325 63.7367 28.7214 63.0116C26.6056 61.1194 24.1745 60.5465 21.4156 61.1255C20.2939 61.3609 19.1543 61.5266 18.0151 61.6574C16.6995 61.8085 16.1126 61.488 15.5668 60.27C15.0873 59.1999 14.6633 58.099 14.3015 56.9836C13.4188 54.2621 11.6302 52.4859 8.91232 51.5979C7.87922 51.2604 6.85864 50.8753 5.85648 50.4544C4.37273 49.8315 4.0071 49.1457 4.23928 47.5453C4.45823 46.0342 4.73103 44.5299 4.91597 43.0148C5.14413 41.1441 4.61648 39.46 3.45371 37.9844C2.59799 36.8987 1.68369 35.8582 0.841909 34.7621C-0.278581 33.3031 -0.278818 32.5813 0.830335 31.1376C1.56465 30.1817 2.34007 29.2553 3.12847 28.3428C4.81511 26.3912 5.24522 24.1391 4.80354 21.6606C4.61293 20.5904 4.42847 19.5191 4.26077 18.4451C3.98915 16.7064 4.34887 16.0472 6.00079 15.3678C7.08774 14.9207 8.19524 14.5215 9.30321 14.1279C11.6739 13.2854 13.2911 11.7052 14.1298 9.32732C14.5204 8.22015 14.9213 7.11462 15.3707 6.03007C16.0545 4.38015 16.5529 4.06577 18.3498 4.25101C19.548 4.37426 20.7365 4.60663 21.9234 4.82274C24.3323 5.26109 26.4776 4.73531 28.3591 3.15373C29.2826 2.3772 30.2068 1.59973 31.1615 0.862793C32.6566 -0.291515 33.3338 -0.286801 34.8593 0.872219C35.5851 1.42369 36.3072 1.98953 36.9685 2.61476C39.234 4.75628 41.8709 5.37421 44.8885 4.71457C46.0335 4.46429 47.2121 4.35894 48.3789 4.21636C49.2856 4.1056 49.9347 4.53852 50.289 5.33768C50.7521 6.38311 51.225 7.43537 51.5538 8.52675C52.4803 11.6027 54.4813 13.539 57.5426 14.4536C58.3856 14.7055 59.2118 15.0274 60.0221 15.3727C61.6842 16.0809 62.0132 16.6946 61.7362 18.464C61.5727 19.5087 61.4086 20.5539 61.2128 21.593C60.7326 24.1408 61.2029 26.435 62.9396 28.4281C63.7315 29.3373 64.5081 30.2632 65.2372 31.2231C66.2498 32.556 66.2533 33.313 65.2538 34.6372C64.5632 35.5521 63.8291 36.438 63.0662 37.2942C61.2442 39.3395 60.701 41.6962 61.2215 44.3485C61.4308 45.4146 61.602 46.4893 61.7612 47.5642C61.992 49.1217 61.6431 49.8056 60.2069 50.4282C59.1291 50.8953 58.0216 51.3023 56.9063 51.6735C54.3137 52.5363 52.6284 54.2682 51.7496 56.8349C51.3601 57.9732 50.9479 59.1082 50.4656 60.2095C49.9106 61.4762 49.3279 61.7722 47.6162 61.6331Z" fill="#214099"/>
</g>
<mask id="mask1_71_334" style="mask-type:alpha" maskUnits="userSpaceOnUse" x="39" y="57" width="24" height="23">
<path fill-rule="evenodd" clip-rule="evenodd" d="M39.4124 57.6836H62.2014V79.9996H39.4124V57.6836Z" fill="white"/>
</mask>
<g mask="url(#mask1_71_334)">
<path fill-rule="evenodd" clip-rule="evenodd" d="M55.5158 57.6836C57.244 63.1384 58.9092 68.3915 60.5727 73.6452C61.0774 75.2395 61.5857 76.8327 62.0767 78.4312C62.4138 79.5287 62.08 79.9838 60.9236 79.9852C55.5059 79.992 50.0881 79.9781 44.6704 79.9996C43.8822 80.0026 43.5005 79.6623 43.2783 78.949C42.0317 74.9433 40.7777 70.9395 39.4858 66.9485C39.3037 66.3859 39.4721 66.1203 39.8613 65.7619C41.0434 64.6735 42.4098 64.5453 43.8995 64.8253C44.9975 65.0315 46.0998 65.2193 47.2059 65.377C50.3505 65.8253 52.51 64.6964 53.8677 61.8149C54.4638 60.5491 54.9114 59.2136 55.5158 57.6836Z" fill="#214099"/>
</g>
<path fill-rule="evenodd" clip-rule="evenodd" d="M10.5572 57.8711C10.6701 58.1332 10.792 58.3882 10.8907 58.6516C11.1276 59.2835 11.3489 59.9209 11.5844 60.5532C13.1399 64.7305 15.4742 66.0436 19.8756 65.2376C20.9163 65.047 21.9673 64.9122 23.0092 64.7269C24.4114 64.4776 25.4592 65.1549 26.4089 66.0337C26.5627 66.1761 26.6078 66.5718 26.5372 66.7992C25.2667 70.8892 23.9665 74.9703 22.6844 79.057C22.4799 79.7096 22.0925 79.9983 21.3932 79.9964C15.9168 79.9818 10.4403 79.9936 4.96395 79.9832C3.98022 79.9816 3.58696 79.4869 3.87535 78.5732C6.04689 71.6917 8.23732 64.8163 10.4237 57.9394C10.4287 57.9241 10.4634 57.918 10.5572 57.8711Z" fill="#214099"/>
<path fill-rule="evenodd" clip-rule="evenodd" d="M45.2412 29.5528C45.2098 28.7013 44.8052 28.4638 44.2095 28.374C42.0564 28.0495 39.9026 27.7266 37.7594 27.3448C37.4329 27.2866 37.0326 26.9845 36.8852 26.6873C35.9071 24.7145 35.0141 22.6995 34.0285 20.7305C33.8334 20.3407 33.3591 19.8491 33.0086 19.8456C32.6616 19.8418 32.1751 20.3285 31.9809 20.7157C31.0069 22.6574 30.0957 24.6311 29.1934 26.6074C28.9792 27.0766 28.735 27.3281 28.1797 27.4021C26.1095 27.6781 24.0442 27.999 21.9879 28.3641C21.5758 28.4371 20.965 28.7134 20.8871 29.0112C20.7905 29.3796 21.0436 29.9702 21.3377 30.2874C22.7976 31.8619 24.3123 33.3867 25.8282 34.9086C26.1716 35.2534 26.2939 35.5506 26.1671 36.0618C25.6234 38.2554 25.1161 40.4593 24.6654 42.6735C24.5799 43.0939 24.6652 43.7778 24.9384 43.9788C25.2238 44.1888 25.8945 44.0931 26.2873 43.9044C28.2744 42.9494 30.2395 41.9457 32.1815 40.9022C32.7672 40.5875 33.2124 40.5708 33.8055 40.8885C35.8004 41.958 37.8201 42.9834 39.857 43.9706C40.1994 44.1365 40.8298 44.2003 41.0495 44.0031C41.3166 43.7632 41.4437 43.1655 41.3641 42.7771C40.9052 40.5345 40.3882 38.303 39.8397 36.0801C39.7162 35.5796 39.8093 35.2732 40.1607 34.9213C41.6789 33.402 43.175 31.8602 44.6663 30.3145C44.9195 30.052 45.1099 29.7293 45.2412 29.5528ZM32.4571 52.7068C21.1969 52.2334 12.656 43.047 13.2283 31.8935C13.79 20.9417 23.2516 12.4765 34.3835 13.2292C44.7634 13.931 53.2811 22.8197 52.7903 33.948C52.3234 44.5312 42.9858 53.1496 32.4571 52.7068Z" fill="#214099"/>
</svg>
