<svg width="48" height="64" viewBox="0 0 48 64" fill="none" xmlns="http://www.w3.org/2000/svg">
<mask id="mask0_71_629" style="mask-type:alpha" maskUnits="userSpaceOnUse" x="0" y="0" width="37" height="63">
<path fill-rule="evenodd" clip-rule="evenodd" d="M0 0H36.6518V62.9H0V0Z" fill="white"/>
</mask>
<g mask="url(#mask0_71_629)">
<path fill-rule="evenodd" clip-rule="evenodd" d="M17.2213 58.6185C17.0873 59.7674 16.0675 60.5878 14.9435 60.4508C13.8196 60.3138 13.0171 59.2714 13.1512 58.1224C13.2851 56.9734 14.3049 56.153 15.4288 56.29C16.5528 56.427 17.3553 57.4695 17.2213 58.6185ZM15.4188 3.28677C15.4397 3.1068 15.5996 2.97827 15.7757 2.9997L27.3483 4.41024C27.5244 4.43175 27.6502 4.59508 27.6291 4.77504C27.6082 4.95507 27.4485 5.0836 27.2724 5.0621L15.6996 3.65156C15.5235 3.63013 15.3977 3.4668 15.4188 3.28677ZM20.7722 56.7396C20.405 56.2847 20.0847 55.868 19.7753 55.4651C19.7523 55.4352 19.73 55.4062 19.7074 55.3768L4.54922 53.5292C3.34333 53.3822 2.48237 52.2638 2.62615 51.0312L7.75428 7.06382C7.89806 5.83115 8.9921 4.95103 10.198 5.09801L32.2872 7.79034C33.493 7.93732 34.3539 9.05572 34.2103 10.2884L31.634 32.376C31.6664 32.391 31.6994 32.4045 31.7316 32.4202C32.0075 32.5547 32.2689 32.7109 32.5142 32.8867C32.8522 32.6683 33.2161 32.4869 33.6011 32.3475C33.6784 32.3196 33.7562 32.2937 33.8342 32.2695L36.6148 8.42933C36.9543 5.51917 34.9216 2.87875 32.0749 2.53177L11.6137 0.0378421C8.76684 -0.309138 6.18385 1.76878 5.84449 4.67893L0.037032 54.4713C-0.302461 57.3814 1.73021 60.0219 4.57706 60.3689L25.0383 62.8628C25.4596 62.9141 25.875 62.9111 26.2784 62.8614C24.3015 60.8744 22.4498 58.8176 20.7722 56.7396Z" fill="#4D64AD"/>
</g>
<path fill-rule="evenodd" clip-rule="evenodd" d="M15.8329 33.1807C13.9823 32.3429 12.5382 30.7552 11.8653 28.8124C10.5094 24.8963 12.5227 20.5828 16.3533 19.1964C18.2057 18.5258 20.2059 18.6344 21.9846 19.5019C23.7634 20.3696 25.104 21.8905 25.76 23.7842C26.3197 25.4013 26.3264 27.1135 25.78 28.7381L25.787 28.7574L28.0727 29.5593C28.8049 27.3937 28.7977 25.1105 28.0514 22.9552C26.2483 17.7476 20.6363 15.0111 15.5423 16.854C13.0784 17.7455 11.1 19.5682 9.97152 21.9863C8.84283 24.4044 8.70171 27.1231 9.57389 29.6416C10.4463 32.1604 12.2292 34.1829 14.5944 35.3363C14.7477 35.4111 14.9122 35.4848 15.111 35.5678L15.9705 33.5714L15.8329 33.1807Z" fill="#4D64AD"/>
<path fill-rule="evenodd" clip-rule="evenodd" d="M47.6283 51.3763C47.5184 50.9849 47.353 50.4059 47.1433 49.7078C46.3966 47.2248 46.2705 46.438 45.7897 44.8222C45.6348 44.3017 45.4996 43.8073 45.3814 43.3449C45.4128 43.0211 45.3922 42.6883 45.3097 42.3585C45.3102 42.3583 45.3103 42.358 45.3108 42.3578C45.1686 41.4584 44.9591 40.9698 44.7715 40.0154C44.5814 39.0499 43.9809 37.3121 43.9466 37.213C43.6887 36.4681 43.1598 35.9007 42.5133 35.5854C42.1409 35.4037 41.7293 35.3058 41.3081 35.3057C40.9981 35.3057 40.6828 35.3587 40.374 35.4705C39.3274 35.8493 38.6421 36.8001 38.5283 37.8574C38.5272 37.8575 38.5261 37.8575 38.525 37.8576C38.5234 37.8825 38.5218 37.9075 38.5203 37.9324C38.5171 37.9716 38.5144 38.0108 38.5128 38.0502C38.4896 38.414 38.5124 38.3379 38.4892 38.7016C38.4073 38.3177 38.3954 38.2621 38.1872 37.2858L38.1847 37.2857C38.164 37.0528 38.1183 36.8189 38.0385 36.5882C37.7805 35.8434 37.2517 35.276 36.6051 34.9607C36.2327 34.779 35.8212 34.681 35.3999 34.681C35.0899 34.681 34.7747 34.734 34.4658 34.8458C33.6484 35.1416 33.0496 35.7861 32.7723 36.5579C32.6532 36.8893 32.5951 37.2441 32.6027 37.605L32.5423 37.9781L32.1301 36.7189H32.1299C32.1077 36.6254 32.0806 36.5322 32.0485 36.4395C31.7906 35.6946 31.2617 35.1271 30.6153 34.8118C30.2428 34.6302 29.8312 34.5322 29.41 34.5322C29.1 34.5322 28.7848 34.5852 28.4759 34.697C27.3184 35.1158 26.6016 36.234 26.6132 37.4227L26.6111 37.423L26.6128 37.4438C26.6151 37.5725 26.6255 37.7016 26.6451 37.8311L26.732 38.8717C25.1714 34.6208 23.6108 30.37 22.0502 26.1192C21.7923 25.3744 21.2634 24.8069 20.6169 24.4916C20.2444 24.3099 19.8328 24.2119 19.4115 24.2119C19.1016 24.2119 18.7865 24.2649 18.4776 24.3767C17.0204 24.9041 16.2572 26.5391 16.7731 28.0288C19.0445 34.4756 21.3161 40.9223 23.5876 47.3691C23.1929 46.7711 22.2505 45.4662 20.7237 44.47C20.513 44.28 20.2325 44.102 19.906 43.9426C19.2845 43.6396 18.4958 43.404 17.7026 43.282C17.2548 43.2086 16.8303 43.1793 16.4383 43.1793C16.3033 43.1793 16.1724 43.1828 16.0455 43.1891C16.0415 43.1977 16.0377 43.2061 16.0338 43.2147C15.2835 43.2862 14.6588 43.52 14.3524 43.9732C14.0272 44.4546 13.7788 45.5976 14.2635 46.4299C14.2756 46.4505 14.3509 46.5762 14.4641 46.7055C14.4637 46.7068 14.463 46.708 14.4626 46.7091C14.4687 46.7148 14.476 46.7213 14.4823 46.727V46.7271C14.5492 46.8006 14.6276 46.8693 14.7123 46.9349C15.0253 47.2171 15.4286 47.5784 15.8992 47.9946C17.4861 49.3976 18.4589 50.2028 18.9157 50.5998C20.6038 52.0672 21.4112 53.3684 22.7713 55.053C24.0535 56.6412 25.9344 58.8331 28.4746 61.353C28.528 61.4083 28.583 61.4619 28.6382 61.5156C28.6547 61.5318 28.6705 61.5477 28.687 61.564C28.6873 61.5636 28.6876 61.5633 28.6878 61.563C29.2766 62.1247 29.9677 62.5972 30.7363 62.9719C32.1097 63.6418 33.7307 64.0002 35.4573 64.0002C36.9466 64.0002 38.5143 63.7337 40.0701 63.1707C45.7841 61.103 49.168 55.8225 47.6283 51.3763Z" fill="#4D64AD"/>
</svg>
