<svg width="48" height="64" viewBox="0 0 48 64" fill="none" xmlns="http://www.w3.org/2000/svg">
<path fill-rule="evenodd" clip-rule="evenodd" d="M0 49.1017H33.4755H48C47.5929 48.4325 47.1786 47.6748 46.7668 46.8182C43.6217 40.2761 42.0225 30.9615 42.0137 19.1333C42.0126 19.1029 42.0121 19.0724 42.0121 19.0418C42.0121 8.53836 33.9314 0 23.9993 0C14.0669 0 5.98629 8.53836 5.98629 19.0335C5.98629 30.9094 4.38724 40.2575 1.23337 46.8182C0.821568 47.6747 0.407254 48.4325 0 49.1017ZM24.0001 64C29.7692 64 34.475 59.1121 34.6116 53.0508H13.3884C13.5253 59.1123 18.2308 64 24.0001 64Z" fill="#4D64AD"/>
</svg>
