<svg width="18" height="24" viewBox="0 0 18 24" fill="none" xmlns="http://www.w3.org/2000/svg">
<path fill-rule="evenodd" clip-rule="evenodd" d="M11.2551 15.6786C11.2296 15.5305 11.2111 15.3141 11.154 15.1085C10.8755 14.1061 9.9713 13.4624 8.91211 13.5005C7.85971 13.5383 7.00459 14.2587 6.80185 15.2783C6.59186 16.3346 7.0839 17.3318 8.0455 17.7609C8.21015 17.8344 8.25988 17.9181 8.25569 18.0892C8.24452 18.5451 8.24878 19.0016 8.25296 19.4578C8.25735 19.9472 8.53361 20.2407 8.98829 20.2486C9.45081 20.2567 9.74237 19.9556 9.74695 19.4559C9.75114 18.9914 9.75493 18.5267 9.74409 18.0625C9.74044 17.9067 9.78976 17.8371 9.93368 17.7713C10.7962 17.3764 11.2102 16.682 11.2551 15.6786V15.6786ZM14.2221 9.73942C14.2299 9.6799 14.2418 9.63235 14.2417 9.58481C14.2402 8.5558 14.265 7.52587 14.2298 6.49799C14.1189 3.26109 11.0462 0.907958 7.8839 1.61956C5.42179 2.17357 3.78961 4.20178 3.75909 6.75794C3.74813 7.67895 3.7567 8.60022 3.75783 9.52137C3.75796 9.59245 3.77026 9.66361 3.77737 9.73942H14.2221ZM2.25354 9.73769C2.25354 9.62597 2.25307 9.52815 2.25367 9.43033C2.26012 8.39334 2.22947 7.35456 2.28039 6.31984C2.42836 3.3093 4.62857 0.768842 7.58391 0.150069C11.3816 -0.644992 14.9806 1.79678 15.65 5.63484C15.7222 6.04899 15.7354 6.47651 15.7422 6.89838C15.7558 7.75269 15.7463 8.60747 15.7463 9.46198C15.7463 9.55083 15.7463 9.63967 15.7463 9.73802C15.8885 9.75425 16.0029 9.76129 16.1151 9.78091C17.2622 9.98147 17.9861 10.8508 17.9955 12.0588C18.0043 13.1871 17.9975 14.3155 17.9975 15.4439C17.9975 17.5098 18 19.5757 17.9964 21.6416C17.9945 22.7561 17.359 23.6289 16.3381 23.9113C16.1255 23.9701 15.8972 23.9955 15.6761 23.9957C11.2233 24.0004 6.77054 24.0013 2.31775 23.9981C1.00078 23.9971 0.0103927 23.0282 0.00607193 21.71C-0.00449735 18.4826 0.00155173 15.2551 0.00341299 12.0276C0.00407772 10.8928 0.759349 9.83185 2.25354 9.73769V9.73769Z" fill="white"/>
</svg>
