<svg width="22" height="20" viewBox="0 0 22 20" fill="none" xmlns="http://www.w3.org/2000/svg">
<mask id="mask0_80_216" style="mask-type:alpha" maskUnits="userSpaceOnUse" x="0" y="0" width="22" height="20">
<path fill-rule="evenodd" clip-rule="evenodd" d="M0 0H22V20H0V0Z" fill="white"/>
</mask>
<g mask="url(#mask0_80_216)">
<path fill-rule="evenodd" clip-rule="evenodd" d="M1.67103 7.45063C1.76063 7.42533 1.79725 7.41139 1.83496 7.40493C2.08556 7.36208 2.33635 7.28463 2.58716 7.28434C8.18997 7.27734 13.7928 7.27712 19.3956 7.28447C19.6559 7.2848 19.9161 7.36718 20.1763 7.41184C20.2129 7.4181 20.2491 7.42723 20.3264 7.44382C20.3039 6.94135 20.2983 6.464 20.2545 5.99067C20.2332 5.75972 20.0764 5.58918 19.8626 5.52645C19.7106 5.48185 19.5477 5.46204 19.3896 5.46194C13.7918 5.45907 8.19397 5.45978 2.59614 5.46065C2.50114 5.46065 2.40554 5.46307 2.31129 5.47443C2.02181 5.50935 1.77009 5.7047 1.74254 5.98667C1.6963 6.45993 1.69362 6.93813 1.67103 7.45063M20.3261 3.82977C20.3044 3.31298 20.2998 2.8413 20.2587 2.3733C20.2385 2.14371 20.0963 1.96332 19.8775 1.90062C19.7203 1.85554 19.5542 1.82376 19.3921 1.82366C13.7958 1.81979 8.19943 1.82021 2.60309 1.82172C2.48363 1.82176 2.36261 1.83257 2.24498 1.85483C1.96382 1.90795 1.75489 2.10347 1.73259 2.4067C1.69927 2.85995 1.70961 3.31688 1.70237 3.7723C1.70225 3.77982 1.71478 3.78756 1.69627 3.7662C2.0243 3.7228 2.32932 3.64764 2.63439 3.64725C7.87531 3.64019 13.1163 3.63945 18.3572 3.64625C18.9981 3.64709 19.6492 3.54803 20.3261 3.82977M11.0146 9.09397C8.23092 9.09397 5.44726 9.0939 2.66354 9.09432C2.55847 9.09435 2.45286 9.09332 2.34839 9.10342C1.9759 9.1393 1.74723 9.37493 1.71949 9.77252C1.69822 10.0776 1.69744 10.3844 1.69221 10.6905C1.68846 10.9097 1.69185 10.9098 1.89844 10.9098C3.24524 10.9097 4.59209 10.9026 5.93879 10.9123C6.74622 10.9182 7.44206 11.2399 7.96166 11.9052C8.20544 12.2173 8.38622 12.5925 8.56358 12.957C9.37485 14.6244 11.4141 15.065 12.7603 13.8582C13.1351 13.5222 13.3755 13.0893 13.588 12.6274C14.1073 11.4985 14.9619 10.9224 16.132 10.9123C17.4487 10.9011 18.7655 10.9099 20.0822 10.9099C20.1223 10.9099 20.1681 10.9224 20.2009 10.9057C20.2414 10.8851 20.3013 10.8394 20.3007 10.8056C20.2943 10.4191 20.2942 10.0311 20.2583 9.64719C20.2345 9.39281 20.0731 9.21343 19.8399 9.15289C19.6722 9.10939 19.4941 9.09658 19.3207 9.09639C16.552 9.09309 13.7833 9.09409 11.0146 9.09397M10.997 19.9999C8.20325 20 5.40946 20.0001 2.61567 20C1.43232 20 0.48696 19.281 0.11891 18.0729C0.0409133 17.8169 0.00597103 17.5345 0.00540018 17.2642C-0.00175051 13.6991 0.00077326 10.1338 0.00089344 6.56868C0.000923485 5.34264 0.00419838 4.11661 2.21369e-05 2.89061C-0.0038837 1.75957 0.509284 0.953748 1.3701 0.371483C1.75966 0.107973 2.19354 -0.000193356 2.65644 2.59427e-07C8.21395 0.00287221 13.7715 0.00132329 19.329 0.00277541C20.4003 0.00306583 21.1533 0.582652 21.6865 1.53533C21.9128 1.93964 21.9987 2.38785 21.9983 2.86176C21.9959 6.08274 21.9996 9.30375 22 12.5247C22.0002 14.0895 21.9967 15.6544 21.9966 17.2192C21.9965 18.7899 20.8727 19.9992 19.4084 19.9996C16.6046 20.0002 13.8008 19.9997 10.997 19.9999" fill="white"/>
</g>
</svg>
