<svg width="55" height="64" viewBox="0 0 55 64" fill="none" xmlns="http://www.w3.org/2000/svg">
<path fill-rule="evenodd" clip-rule="evenodd" d="M8.2783 33.1858C7.62549 33.1858 7.09568 32.6548 7.09568 32.0006C7.09568 31.3464 7.62549 30.8154 8.2783 30.8154H31.9306C32.5834 30.8154 33.1132 31.3464 33.1132 32.0006C33.1132 32.6548 32.5834 33.1858 31.9306 33.1858H8.2783ZM8.2783 23.7041H31.9306C32.5834 23.7041 33.1132 24.2351 33.1132 24.8894C33.1132 25.5436 32.5834 26.0746 31.9306 26.0746H8.2783C7.62549 26.0746 7.09568 25.5436 7.09568 24.8894C7.09568 24.2351 7.62549 23.7041 8.2783 23.7041ZM8.2783 16.5929H31.9306C32.5834 16.5929 33.1132 17.1239 33.1132 17.7781C33.1132 18.4323 32.5834 18.9633 31.9306 18.9633H8.2783C7.62549 18.9633 7.09568 18.4323 7.09568 17.7781C7.09568 17.1239 7.62549 16.5929 8.2783 16.5929ZM8.2783 9.48166H15.374C16.0268 9.48166 16.5566 10.0126 16.5566 10.6669C16.5566 11.3211 16.0268 11.8521 15.374 11.8521H8.2783C7.62549 11.8521 7.09568 11.3211 7.09568 10.6669C7.09568 10.0126 7.62549 9.48166 8.2783 9.48166ZM44.9393 2.37041C47.5482 2.37041 49.6698 4.49668 49.6698 7.11124H40.2089C40.2089 4.49668 42.3305 2.37041 44.9393 2.37041ZM23.6523 49.7787C23.6523 40.6147 31.0649 33.1858 40.2089 33.1858V9.48166H50.8524C51.5052 9.48166 52.035 8.95068 52.035 8.29645V7.11124C52.035 3.19058 48.8514 0 44.9393 0H7.09568C3.1836 0 0 3.19058 0 7.11124V53.3343C0 53.742 0.20814 54.1213 0.553463 54.3394L4.326 56.7098C4.70917 56.9492 5.19877 56.9492 5.58194 56.7098L8.72769 54.7329L11.8829 56.7098C12.0769 56.8307 12.2945 56.8899 12.5121 56.8899C12.7297 56.8899 12.9473 56.8307 13.1388 56.7098L16.2893 54.7329L19.4445 56.7098C19.8277 56.9492 20.3173 56.9492 20.6981 56.7098L23.8581 54.7329L24.5653 55.1738C23.9834 53.4813 23.6523 51.6703 23.6523 49.7787Z" fill="#4D64AD"/>
<path fill-rule="evenodd" clip-rule="evenodd" d="M44.8277 56.9406C44.7284 56.95 44.6267 56.9453 44.5274 56.9453C43.0846 56.9453 41.6418 56.9453 40.199 56.9453C38.6947 56.9453 37.1904 56.9429 35.6885 56.9453C35.4685 56.9453 35.2911 56.8789 35.1918 56.6751C35.109 56.502 35.1043 56.3077 35.2462 56.1797C35.3574 56.0801 35.5182 56.0019 35.6649 55.9877C35.9818 55.9545 35.996 56.0469 35.9936 55.6345C35.9913 54.9613 35.9747 54.2904 36.1545 53.6315C36.4761 52.4534 37.2141 51.5716 38.1294 50.8178C38.4038 50.5902 38.69 50.3816 38.9785 50.173C39.3333 49.917 39.3357 49.6942 38.9738 49.4358C38.3328 48.9783 37.7131 48.4948 37.1952 47.8927C36.4194 46.9919 36.0031 45.9537 35.9936 44.7614C35.9913 44.4509 35.9889 44.1427 35.996 43.8322C36.0007 43.6876 35.9581 43.6141 35.7997 43.6331C35.7334 43.6402 35.6625 43.6354 35.5915 43.6307C35.3455 43.6141 35.1421 43.3984 35.1398 43.159C35.1374 42.8959 35.3314 42.6896 35.5986 42.6707C35.6601 42.6659 35.7216 42.6683 35.7831 42.6683C38.7373 42.6683 41.6915 42.6659 44.6456 42.6683C44.7521 42.6683 44.8656 42.6707 44.9626 42.7062C45.1754 42.7868 45.289 43.012 45.2488 43.2325C45.2062 43.46 45.0383 43.6117 44.8017 43.6307C44.4517 43.6591 44.4469 43.6591 44.4517 44.0218C44.4635 44.8206 44.4564 45.6147 44.1655 46.378C43.8178 47.2906 43.2241 48.0207 42.4909 48.6417C42.1503 48.9309 41.7861 49.1941 41.4289 49.4643C41.1238 49.6942 41.1191 49.9265 41.4336 50.147C42.2047 50.6945 42.9427 51.2776 43.5103 52.0433C44.1276 52.8777 44.4446 53.8116 44.4493 54.8499C44.4517 55.1438 44.4611 55.4377 44.4469 55.7317C44.4398 55.9189 44.4895 56.0019 44.6882 55.9829C44.7852 55.9758 44.8916 55.9948 44.9815 56.0303C45.1802 56.1109 45.2842 56.3243 45.2488 56.5423C45.2156 56.7533 45.043 56.9192 44.8277 56.9406ZM40.2085 35.5547C32.3701 35.5547 26.0171 41.924 26.0171 49.7772C26.0171 57.6327 32.3701 63.9997 40.2085 63.9997C48.0468 63.9997 54.3998 57.6327 54.3998 49.7772C54.3998 41.924 48.0468 35.5547 40.2085 35.5547Z" fill="#4D64AD"/>
<path fill-rule="evenodd" clip-rule="evenodd" d="M37.353 55.2682C37.5185 54.3983 38.5994 53.2557 40.0162 53.187C41.3904 53.1182 42.8025 54.064 43.0579 55.2682H37.353ZM39.8838 51.1721C39.8838 50.9991 40.0422 50.8426 40.2078 50.8474C40.3639 50.8521 40.5153 51.0086 40.5153 51.1626C40.5176 51.3428 40.3734 51.4826 40.1912 51.4779C40.0209 51.4732 39.8814 51.3357 39.8838 51.1721ZM40.2054 52.016C40.3615 52.016 40.5129 52.1677 40.5153 52.3265C40.52 52.5043 40.3757 52.6465 40.196 52.6442C40.0162 52.6418 39.8743 52.4924 39.8838 52.3147C39.8909 52.1582 40.0446 52.0136 40.2054 52.016ZM39.0417 47.837C38.4268 47.3486 37.8875 46.7916 37.5682 46.0544C37.5422 45.9975 37.5209 45.9406 37.4996 45.8837C37.4925 45.8624 37.4925 45.8411 37.4854 45.7984H42.9254C42.4642 47.2041 41.2367 47.8796 40.2078 48.7259C39.8128 48.4248 39.4202 48.138 39.0417 47.837ZM42.8923 52.2862C42.3814 51.6462 41.7452 51.1484 41.0806 50.6791C40.3876 50.1908 40.3899 49.4346 41.0735 48.9368C41.4141 48.6879 41.757 48.4343 42.0787 48.1593C42.8498 47.5004 43.4955 46.7323 43.6847 45.7107C43.8029 45.0778 43.7769 44.4212 43.8148 43.7741C43.8242 43.6152 43.7083 43.6342 43.6114 43.6342C41.3502 43.6342 39.0914 43.6366 36.8326 43.6318C36.6647 43.6318 36.6221 43.6958 36.6268 43.8499C36.6363 44.1438 36.6292 44.4378 36.6292 44.7317C36.6339 45.6657 36.9201 46.5024 37.4902 47.2467C38.0176 47.9365 38.6917 48.4604 39.3942 48.9558C40.0422 49.4109 40.0422 50.1884 39.4013 50.6554C39.0512 50.909 38.7035 51.165 38.3748 51.4447C37.5966 52.1084 36.9509 52.8836 36.7569 53.9147C36.6434 54.5073 36.6718 55.126 36.6268 55.7328C36.6127 55.9272 36.6789 55.9841 36.8728 55.9817C37.9892 55.9746 39.108 55.9793 40.2267 55.9793C41.336 55.9793 42.4477 55.9746 43.557 55.9841C43.7509 55.9841 43.8337 55.9438 43.8219 55.7304C43.8029 55.4294 43.8195 55.126 43.8148 54.8249C43.8006 53.872 43.4884 53.0282 42.8923 52.2862Z" fill="#4D64AD"/>
</svg>
