<svg width="73" height="80" viewBox="0 0 73 80" fill="none" xmlns="http://www.w3.org/2000/svg">
<path fill-rule="evenodd" clip-rule="evenodd" d="M37.8464 44.0384V43.0512C37.8464 40.0318 37.8466 37.0124 37.8464 33.993C37.8462 32.353 37.8416 30.7133 37.8462 29.0734C37.8489 28.0084 37.4678 27.1358 36.5371 26.5636C35.64 26.0118 34.6982 25.9798 33.7698 26.4839C32.6838 27.0738 32.3022 28.049 32.3029 29.2254C32.3061 34.9257 32.2967 40.6262 32.3084 46.3265C32.3125 48.3358 33.4063 49.3988 35.4383 49.4042C38.5359 49.4124 41.6336 49.4081 44.7312 49.4056C46.3585 49.4044 47.9872 49.4308 49.6131 49.379C50.9508 49.3364 52.0235 48.2875 52.1349 47.0289C52.2569 45.6497 51.3939 44.417 50.0556 44.118C49.6774 44.0336 49.2736 44.0422 48.8815 44.0415C45.5214 44.0361 42.1611 44.0384 38.8011 44.0384H37.8464ZM37.3049 80H32.8929C32.69 79.9558 32.4891 79.8864 32.2841 79.8709C27.563 79.5149 23.1284 78.1958 18.9315 76.0341C4.30088 68.4978 -2.95504 51.0124 2.10484 35.4525C6.56739 21.7291 18.586 12.3932 33.1054 11.5508C42.8358 10.986 51.3914 14.0268 58.5366 20.5881C70.655 31.7159 73.2068 49.3675 64.6768 63.3827C59.368 72.1053 51.5296 77.4353 41.4167 79.3958C40.0582 79.6592 38.6762 79.8015 37.3049 80Z" fill="#214099"/>
<path fill-rule="evenodd" clip-rule="evenodd" d="M35.1528 5.48608C33.2903 5.48585 31.4276 5.49606 29.5653 5.4829C27.8186 5.47088 26.5823 4.31421 26.5926 2.731C26.6029 1.14983 27.8449 0.0101843 29.599 0.00610033C33.2715 -0.00252134 36.9441 -0.00138691 40.6167 0.00564656C42.4309 0.00904985 43.6636 1.13962 43.6549 2.76526C43.6459 4.39544 42.4311 5.47723 40.5828 5.48472C38.773 5.49198 36.9629 5.48631 35.1528 5.48608Z" fill="#214099"/>
<path fill-rule="evenodd" clip-rule="evenodd" d="M72.5001 19.5693C72.4719 21.0343 71.8634 21.8366 70.851 22.3278C69.8215 22.8274 68.7923 22.758 67.9133 21.9949C67.1647 21.3451 66.4812 20.6212 65.7756 19.9233C63.993 18.1597 62.1932 16.4122 60.4394 14.6205C58.7988 12.9442 59.4069 10.5 61.5759 9.9305C62.4389 9.70362 63.3043 9.79959 63.9406 10.4163C66.6225 13.0157 69.2773 15.6433 71.8959 18.3053C72.2651 18.6808 72.3788 19.3036 72.5001 19.5693Z" fill="#214099"/>
</svg>
