<svg width="72" height="87" viewBox="0 0 72 87" fill="none" xmlns="http://www.w3.org/2000/svg">
<path fill-rule="evenodd" clip-rule="evenodd" d="M30.1785 49.1143C28.6598 47.5856 27.3428 46.1751 25.9236 44.8754C25.3895 44.3863 24.6526 43.9878 23.947 43.8427C22.7637 43.5994 21.6128 44.3186 21.0709 45.3866C20.5065 46.4988 20.6948 47.8096 21.6312 48.7576C23.587 50.7377 25.57 52.6912 27.5424 54.6549C29.3364 56.4407 30.8179 56.4496 32.5983 54.6781C38.3961 48.9083 44.1922 43.1368 49.9873 37.3643C50.2284 37.1242 50.4819 36.8881 50.6788 36.6139C51.3889 35.6248 51.4708 34.5644 50.8975 33.4944C49.9451 31.7174 47.6601 31.4777 46.1266 33.0005C41.0075 38.0833 35.898 43.1757 30.7915 48.2713C30.5736 48.4889 30.4233 48.7733 30.1785 49.1143ZM36.6972 87H35.3304C32.633 85.6856 29.7911 84.6001 27.2611 83.0199C10.1587 72.3392 1.59385 56.6018 0.185356 36.8132C-0.147947 32.1304 0.0788177 27.4085 0.0359287 22.7046C0.0231532 21.3182 0.649835 20.374 1.84229 19.6702C12.5566 13.3475 23.266 7.01699 33.9514 0.646062C35.395 -0.214481 36.642 -0.214709 38.0787 0.641518C48.7408 6.99495 59.4211 13.3184 70.1139 19.6207C71.4396 20.402 72.0167 21.4483 71.9996 22.9591C71.9611 26.3878 71.9898 29.8173 71.9866 33.2463C71.9789 41.8847 70.332 50.1888 66.7592 58.0759C61.7416 69.1533 54.0836 77.8902 43.3698 83.835C41.2222 85.0265 38.9253 85.9518 36.6972 87Z" fill="#214099"/>
</svg>
