<svg width="52" height="64" viewBox="0 0 52 64" fill="none" xmlns="http://www.w3.org/2000/svg">
<path fill-rule="evenodd" clip-rule="evenodd" d="M49.0273 56.6423H43.5622C42.9136 56.6423 42.3879 56.1098 42.3879 55.4529V49.917C42.3879 49.2601 42.9136 48.7276 43.5622 48.7276C44.2107 48.7276 44.7364 49.2601 44.7364 49.917V54.2635H49.0273C49.6758 54.2635 50.2015 54.7959 50.2015 55.4529C50.2015 56.1098 49.6758 56.6423 49.0273 56.6423ZM37.437 19.7556H18.8333C18.1848 19.7556 17.6591 19.2231 17.6591 18.5662C17.6591 17.9093 18.1848 17.3768 18.8333 17.3768H37.437C38.0856 17.3768 38.6113 17.9093 38.6113 18.5662C38.6113 19.2231 38.0856 19.7556 37.437 19.7556ZM37.437 28.6513H18.8333C18.1848 28.6513 17.6591 28.1188 17.6591 27.4619C17.6591 26.805 18.1848 26.2725 18.8333 26.2725H37.437C38.0856 26.2725 38.6113 26.805 38.6113 27.4619C38.6113 28.1188 38.0856 28.6513 37.437 28.6513ZM37.437 37.5469H18.8333C18.1848 37.5469 17.6591 37.0144 17.6591 36.3575C17.6591 35.7006 18.1848 35.1681 18.8333 35.1681H37.437C38.0856 35.1681 38.6113 35.7006 38.6113 36.3575C38.6113 37.0144 38.0856 37.5469 37.437 37.5469ZM13.2865 19.7556H7.58141C6.93288 19.7556 6.40721 19.2231 6.40721 18.5662C6.40721 17.9093 6.93288 17.3768 7.58141 17.3768H13.2865C13.9351 17.3768 14.4607 17.9093 14.4607 18.5662C14.4607 19.2231 13.9351 19.7556 13.2865 19.7556ZM13.2865 28.6513H7.58141C6.93288 28.6513 6.40721 28.1188 6.40721 27.4619C6.40721 26.805 6.93288 26.2725 7.58141 26.2725H13.2865C13.9351 26.2725 14.4607 26.805 14.4607 27.4619C14.4607 28.1188 13.9351 28.6513 13.2865 28.6513ZM13.2865 37.5469H7.58141C6.93288 37.5469 6.40721 37.0144 6.40721 36.3575C6.40721 35.7006 6.93288 35.1681 7.58141 35.1681H13.2865C13.9351 35.1681 14.4607 35.7006 14.4607 36.3575C14.4607 37.0144 13.9351 37.5469 13.2865 37.5469ZM13.8249 8.48118H31.1936C31.8421 8.48118 32.3678 9.01371 32.3678 9.67058C32.3678 10.3275 31.8421 10.86 31.1936 10.86H13.8249C13.1763 10.86 12.6506 10.3275 12.6506 9.67058C12.6506 9.01371 13.1763 8.48118 13.8249 8.48118ZM45.8718 47.2328L45.0185 46.9873V5.46498C45.0185 2.4516 42.5983 0 39.6234 0H5.39506C2.42017 0 0 2.4516 0 5.46498V51.2674C0 54.2808 2.42017 56.7324 5.39506 56.7324H32.8506C32.8017 56.3087 32.7759 55.8815 32.7759 55.4529C32.7759 52.5734 33.8723 49.856 35.8629 47.801C36.317 47.3322 37.0606 47.3252 37.5234 47.7851C37.9863 48.2452 37.9933 48.9983 37.5391 49.4671C35.9819 51.0745 35.1243 53.2004 35.1243 55.4529C35.1243 56.171 35.2127 56.8836 35.386 57.572L35.3986 57.6209C36.3678 61.3769 39.7248 64 43.5622 64C48.2148 64 52 60.1658 52 55.4529C52 51.6512 49.4799 48.2709 45.8718 47.2328Z" fill="#4D64AD"/>
</svg>
