<svg width="61" height="64" viewBox="0 0 61 64" fill="none" xmlns="http://www.w3.org/2000/svg">
<path fill-rule="evenodd" clip-rule="evenodd" d="M57.8582 15.6294H2.94175C1.31716 15.6294 0 14.2965 0 12.6526V2.97685C0 1.33288 1.31716 0 2.94175 0H57.8582C59.4828 0 60.8 1.33288 60.8 2.97685V12.6526C60.8 14.2965 59.4828 15.6294 57.8582 15.6294Z" fill="#4D64AD"/>
<path fill-rule="evenodd" clip-rule="evenodd" d="M13.2653 58.046H47.7804C48.5432 58.046 49.2136 57.4199 49.2757 56.6503L51.2512 32.0029H9.79395L11.7694 56.6503C11.831 57.4199 12.502 58.046 13.2653 58.046Z" fill="#4D64AD"/>
<path fill-rule="evenodd" clip-rule="evenodd" d="M54.313 18.3584L51.231 56.8109C51.0864 58.6162 49.5701 60.0309 47.78 60.0309H13.2649C11.4748 60.0309 9.9591 58.6162 9.81446 56.8109L6.73192 18.3584H2.79639L5.90367 57.132C6.2155 61.0121 9.41793 64.0001 13.2649 64.0001H47.78C51.6276 64.0001 54.8294 61.0121 55.1402 57.132L58.2491 18.3584H54.313Z" fill="#4D64AD"/>
</svg>
