<svg width="72" height="80" viewBox="0 0 72 80" fill="none" xmlns="http://www.w3.org/2000/svg">
<path fill-rule="evenodd" clip-rule="evenodd" d="M41.1428 19.4286C41.1428 20.0594 40.6308 20.5714 40 20.5714H37.7143C35.4423 20.5714 33.1428 21.9451 33.1428 24.5714C33.1428 27.1977 35.4423 28.5714 37.7143 28.5714H40C40.6308 28.5714 41.1428 29.0834 41.1428 29.7143V38.8571H50.2857C50.9165 38.8571 51.4285 39.3691 51.4285 40V42.2857C51.4285 44.5577 52.8045 46.8571 55.4285 46.8571C58.0525 46.8571 59.4285 44.5577 59.4285 42.2857V40C59.4285 39.3691 59.9405 38.8571 60.5714 38.8571H72V9.14286C72 8.512 71.488 8 70.8571 8H61.0377C60.4068 8 59.8948 8.512 59.8948 9.14286V11.9474C59.8948 14.4114 57.8903 16.416 55.4285 16.416C52.9668 16.416 50.9623 14.4114 50.9623 11.9474V9.14286C50.9623 8.512 50.4503 8 49.8194 8H41.1428V19.4286Z" fill="#214099"/>
<path fill-rule="evenodd" clip-rule="evenodd" d="M8 30.8571V38.8571H19.4286C20.0594 38.8571 20.5714 39.3691 20.5714 40V42.2857C20.5714 44.5577 21.9474 46.8571 24.5714 46.8571C27.1954 46.8571 28.5714 44.5577 28.5714 42.2857V40C28.5714 39.3691 29.0834 38.8571 29.7143 38.8571H38.8571V30.8571H37.7143C33.8057 30.8571 30.8571 28.1554 30.8571 24.5714C30.8571 20.9874 33.8057 18.2857 37.7143 18.2857H38.8571V8H30.8571V6.85714C30.8571 2.94857 28.1531 0 24.5714 0C20.9897 0 18.2857 2.94857 18.2857 6.85714V8H9.14286C8.512 8 8 8.512 8 9.14286V18.2857H6.85714C2.94857 18.2857 0 20.9874 0 24.5714C0 28.1554 2.94857 30.8571 6.85714 30.8571H8Z" fill="#214099"/>
<path fill-rule="evenodd" clip-rule="evenodd" d="M68.5714 51.4283H70.8571C71.488 51.4283 72 50.9163 72 50.2854V41.1426H61.7143V42.2854C61.7143 46.194 59.0103 49.1426 55.4285 49.1426C51.8468 49.1426 49.1428 46.194 49.1428 42.2854V41.1426H41.1428V49.1426H42.2857C46.1943 49.1426 49.1428 51.8443 49.1428 55.4283C49.1428 59.0123 46.1943 61.714 42.2857 61.714H41.1428V71.9997H49.1428V73.1426C49.1428 77.0512 51.8468 79.9997 55.4285 79.9997C59.0103 79.9997 61.7143 77.0512 61.7143 73.1426V71.9997H70.8571C71.488 71.9997 72 71.4877 72 70.8569V60.5711C72 59.9403 71.488 59.4283 70.8571 59.4283H68.5714C65.984 59.4283 64.1051 57.746 64.1051 55.4283C64.1051 53.1106 65.984 51.4283 68.5714 51.4283Z" fill="#214099"/>
<path fill-rule="evenodd" clip-rule="evenodd" d="M38.8571 60.4286C38.8571 59.7977 39.3691 59.2857 40 59.2857H42.2857C44.5577 59.2857 46.8571 57.912 46.8571 55.2857C46.8571 52.6594 44.5577 51.2857 42.2857 51.2857H40C39.3691 51.2857 38.8571 50.7737 38.8571 50.1429V41H30.8571V42.1429C30.8571 46.0514 28.1531 49 24.5714 49C20.9897 49 18.2857 46.0514 18.2857 42.1429V41H8V70.7143C8 71.3451 8.512 71.8571 9.14286 71.8571H19.4286C20.0594 71.8571 20.5714 71.3451 20.5714 70.7143V68.4286C20.5714 66.1566 21.9474 63.8571 24.5714 63.8571C27.1954 63.8571 28.5714 66.1566 28.5714 68.4286V70.7143C28.5714 71.3451 29.0834 71.8571 29.7143 71.8571H38.8571V60.4286Z" fill="#214099"/>
</svg>
