<svg width="81" height="80" viewBox="0 0 81 80" fill="none" xmlns="http://www.w3.org/2000/svg">
<mask id="mask0_71_327" style="mask-type:alpha" maskUnits="userSpaceOnUse" x="17" y="17" width="64" height="63">
<path fill-rule="evenodd" clip-rule="evenodd" d="M17.9944 17.9268H80.1002V80.0004H17.9944V17.9268Z" fill="white"/>
</mask>
<g mask="url(#mask0_71_327)">
<path fill-rule="evenodd" clip-rule="evenodd" d="M24.8261 60.8243C29.0413 69.1523 39.7195 76.2943 52.2289 74.3417C64.3388 72.4515 73.7806 62.4533 74.6947 49.8648C75.5338 38.3064 68.6152 28.5306 60.924 24.742C62.6237 35.3507 60.0446 44.7153 52.419 52.3393C44.7987 59.9576 35.4359 62.5254 24.8261 60.8243ZM60.8654 24.5413C60.518 23.2895 60.2534 22.188 59.9026 21.1146C59.5518 20.0418 59.1149 18.9971 58.7108 17.9268C68.79 20.9695 80.4632 32.2535 80.0915 48.9369C79.7396 64.7259 67.2436 78.2331 51.5677 79.8267C35.0607 81.5046 21.9278 70.7798 17.9944 58.5991C19.105 59.0168 20.1669 59.4588 21.257 59.8143C22.3282 60.1637 23.4282 60.4252 24.5027 60.7219C19.253 48.8737 20.4987 38.0823 29.6912 28.7934C37.0135 21.3946 49.34 18.5967 60.8654 24.5413Z" fill="#214099"/>
</g>
<path fill-rule="evenodd" clip-rule="evenodd" d="M17.7265 58.3624C6.44877 53.2348 -1.41478 40.7023 0.351516 26.824C2.2104 12.2185 14.0363 0.98055 28.8941 0.0611221C43.4498 -0.839833 54.4589 8.37226 58.4128 17.6008C45.9962 14.0709 34.7725 16.2167 25.5527 25.4292C16.3288 34.6462 14.1794 45.8705 17.7265 58.3624Z" fill="#214099"/>
</svg>
