<svg width="24" height="23" viewBox="0 0 24 23" fill="none" xmlns="http://www.w3.org/2000/svg">
<mask id="mask0_1_3745" style="mask-type:alpha" maskUnits="userSpaceOnUse" x="0" y="0" width="24" height="23">
<path fill-rule="evenodd" clip-rule="evenodd" d="M0 0.529785H24V22.348H0V0.529785Z" fill="white"/>
</mask>
<g mask="url(#mask0_1_3745)">
<path fill-rule="evenodd" clip-rule="evenodd" d="M1.82294 8.65774C1.92068 8.63014 1.96064 8.61493 2.00177 8.60789C2.27516 8.56114 2.54874 8.47666 2.82236 8.47634C8.93451 8.4687 15.0467 8.46846 21.1589 8.47648C21.4428 8.47683 21.7267 8.56671 22.0105 8.61543C22.0505 8.62226 22.09 8.63222 22.1742 8.65031C22.1497 8.10217 22.1436 7.58142 22.0959 7.06506C22.0726 6.81312 21.9015 6.62707 21.6683 6.55864C21.5024 6.50999 21.3247 6.48837 21.1523 6.48827C15.0456 6.48514 8.93887 6.48591 2.83216 6.48686C2.72852 6.48686 2.62423 6.4895 2.52141 6.50189C2.20561 6.53998 1.93101 6.7531 1.90095 7.0607C1.85051 7.57698 1.84759 8.09865 1.82294 8.65774ZM22.1739 4.70771C22.1503 4.14394 22.1452 3.62938 22.1004 3.11884C22.0784 2.86837 21.9232 2.67159 21.6846 2.60319C21.513 2.55401 21.3319 2.51934 21.155 2.51923C15.0499 2.51501 8.94484 2.51547 2.83973 2.51712C2.70941 2.51716 2.57739 2.52895 2.44907 2.55324C2.14235 2.61118 1.91442 2.82447 1.8901 3.15527C1.85375 3.64973 1.86503 4.1482 1.85713 4.64502C1.857 4.65322 1.87067 4.66167 1.85048 4.63837C2.20833 4.59102 2.54107 4.50903 2.87388 4.50861C8.59125 4.5009 14.3086 4.50009 20.026 4.50752C20.7252 4.50843 21.4355 4.40036 22.1739 4.70771ZM12.016 10.4505C8.97919 10.4505 5.94246 10.4504 2.90567 10.4509C2.79106 10.4509 2.67585 10.4498 2.56188 10.4608C2.15552 10.4999 1.90606 10.757 1.87581 11.1907C1.85261 11.5235 1.85175 11.8582 1.84605 12.1922C1.84195 12.4312 1.84566 12.4313 2.07103 12.4313C3.54026 12.4313 5.00955 12.4235 6.47868 12.4341C7.35951 12.4405 8.11861 12.7915 8.68545 13.5172C8.95139 13.8577 9.14861 14.267 9.34209 14.6647C10.2271 16.4837 12.4517 16.9643 13.9203 15.6478C14.3292 15.2813 14.5915 14.809 14.8233 14.3052C15.3898 13.0736 16.3221 12.4451 17.5986 12.4341C19.0349 12.4219 20.4714 12.4315 21.9079 12.4315C21.9516 12.4315 22.0015 12.4451 22.0374 12.4269C22.0815 12.4044 22.1469 12.3546 22.1462 12.3177C22.1392 11.8961 22.1392 11.4728 22.1 11.054C22.074 10.7765 21.898 10.5808 21.6435 10.5148C21.4606 10.4673 21.2663 10.4533 21.0771 10.4531C18.0567 10.4495 15.0363 10.4506 12.016 10.4505ZM11.9968 22.3479C8.949 22.348 5.90123 22.348 2.85346 22.348C1.56254 22.3479 0.531229 21.5636 0.12972 20.2457C0.0446327 19.9664 0.00651385 19.6584 0.00589111 19.3635C-0.00190965 15.4742 0.000843557 11.5849 0.000974662 7.69562C0.00100744 6.35812 0.00458005 5.02063 2.41494e-05 3.68317C-0.00423677 2.44932 0.555582 1.57024 1.49466 0.935039C1.91963 0.647574 2.39296 0.529574 2.89794 0.529785C8.96067 0.532918 15.0235 0.531229 21.0862 0.532813C22.2549 0.53313 23.0764 1.16541 23.658 2.2047C23.9049 2.64575 23.9986 3.13472 23.9982 3.6517C23.9955 7.1655 23.9995 10.6793 24 14.1931C24.0002 15.9002 23.9964 17.6073 23.9963 19.3143C23.9962 21.0279 22.7703 22.3471 21.1728 22.3475C18.1141 22.3482 15.0555 22.3477 11.9968 22.3479Z" fill="#214099"/>
</g>
</svg>
